<svg xmlns="http://www.w3.org/2000/svg" width="68" height="38" viewBox="0 0 68 38">
    <g fill="none" fill-rule="evenodd" stroke-linecap="round" stroke-linejoin="round">
        <path stroke="#898F9A" stroke-width="4" d="M59.84 29.892a4.159 4.159 0 0 0 4.16-4.16v-2.608a6.605 6.605 0 0 0-6.605-6.604h-7.67s-3.21-5.814-6.476-8.992C39.983 4.348 37.348 4 37.348 4H15.253C6.713 4 4 14.712 4 17.009v8.724a4.159 4.159 0 0 0 4.159 4.159M18.868 29.892H49.26M4 16.52h45.725M24.645 6v23.892M15.122 6v10.52"/>
        <path stroke="#C3C5C9" stroke-width="3" d="M30.009 9.284l2.498 2.497M36.654 9.284l2.498 2.497"/>
        <path stroke="#898F9A" stroke-width="4" d="M29.993 21.6h.016M18.868 29.816a5.21 5.21 0 1 1-10.422 0 5.21 5.21 0 0 1 10.422 0z"/>
        <path stroke="#C3C5C9" stroke-width="2" d="M14.6 28.919l-1.944 1.945"/>
        <path stroke="#898F9A" stroke-width="4" d="M59.68 29.816a5.21 5.21 0 1 1-10.42 0 5.21 5.21 0 0 1 10.42 0z"/>
        <path stroke="#C3C5C9" stroke-width="2" d="M55.345 28.985l-1.878 1.88"/>
    </g>
</svg>
