<svg xmlns="http://www.w3.org/2000/svg" xmlns:xlink="http://www.w3.org/1999/xlink" width="470" height="143" viewBox="0 0 470 143">
    <defs>
        <path id="a" d="M0 0h441.3v6H0z"/>
        <path id="c" d="M0 142h470V0H0z"/>
    </defs>
    <g fill="none" fill-rule="evenodd" opacity=".25">
        <g transform="translate(0 137)">
            <mask id="b" fill="#fff">
                <use xlink:href="#a"/>
            </mask>
            <path fill="#898F99" d="M438.458 6H2.842C1.273 6 0 4.656 0 3s1.273-3 2.842-3h435.616c1.57 0 2.842 1.344 2.842 3s-1.273 3-2.842 3" mask="url(#b)"/>
        </g>
        <mask id="d" fill="#fff">
            <use xlink:href="#c"/>
        </mask>
        <path fill="#898F99" d="M245.56 137.44h103.88V89.56H245.56v47.88zM351.22 141H243.78a1.78 1.78 0 0 1-1.78-1.78V87.78c0-.984.797-1.78 1.78-1.78h107.44c.983 0 1.78.796 1.78 1.78v51.44a1.78 1.78 0 0 1-1.78 1.78z" mask="url(#d)"/>
        <path fill="#898F99" d="M254.55 85.57h84.9v-5.14h-84.9v5.14zM341.226 89h-88.45c-.981 0-1.775-.767-1.775-1.715v-8.57c0-.947.794-1.715 1.775-1.715h88.45c.981 0 1.775.768 1.775 1.715v8.57c0 .948-.794 1.715-1.775 1.715zM314.582 99.213a.369.369 0 0 0-.369.37v3.835a.37.37 0 0 0 .37.369h3.835a.371.371 0 0 0 .369-.37v-3.835a.37.37 0 0 0-.37-.369h-3.835zm3.836 6.787h-3.836a2.586 2.586 0 0 1-2.582-2.582v-3.836A2.585 2.585 0 0 1 314.582 97h3.836A2.586 2.586 0 0 1 321 99.582v3.836a2.587 2.587 0 0 1-2.582 2.582zM314.582 112.213a.369.369 0 0 0-.369.37v3.835a.37.37 0 0 0 .37.369h3.835a.371.371 0 0 0 .369-.37v-3.835a.37.37 0 0 0-.37-.369h-3.835zm3.836 6.787h-3.836a2.586 2.586 0 0 1-2.582-2.582v-3.836a2.585 2.585 0 0 1 2.582-2.582h3.836a2.586 2.586 0 0 1 2.582 2.582v3.836a2.587 2.587 0 0 1-2.582 2.582zM302.582 99.213a.369.369 0 0 0-.369.37v3.835a.37.37 0 0 0 .37.369h3.835a.371.371 0 0 0 .369-.37v-3.835a.37.37 0 0 0-.37-.369h-3.835zm3.836 6.787h-3.836a2.586 2.586 0 0 1-2.582-2.582v-3.836A2.585 2.585 0 0 1 302.582 97h3.836A2.586 2.586 0 0 1 309 99.582v3.836a2.587 2.587 0 0 1-2.582 2.582zM302.582 111.213a.369.369 0 0 0-.369.37v3.835a.37.37 0 0 0 .37.369h3.835a.371.371 0 0 0 .369-.37v-3.835a.37.37 0 0 0-.37-.369h-3.835zm3.836 6.787h-3.836a2.586 2.586 0 0 1-2.582-2.582v-3.836a2.585 2.585 0 0 1 2.582-2.582h3.836a2.586 2.586 0 0 1 2.582 2.582v3.836a2.587 2.587 0 0 1-2.582 2.582zM290.582 99.213a.369.369 0 0 0-.369.37v3.835a.37.37 0 0 0 .37.369h3.835a.371.371 0 0 0 .369-.37v-3.835a.37.37 0 0 0-.37-.369h-3.835zm3.836 6.787h-3.836a2.586 2.586 0 0 1-2.582-2.582v-3.836A2.585 2.585 0 0 1 290.582 97h3.836A2.586 2.586 0 0 1 297 99.582v3.836a2.587 2.587 0 0 1-2.582 2.582zM290.582 112.213a.369.369 0 0 0-.369.37v3.835a.37.37 0 0 0 .37.369h3.835a.371.371 0 0 0 .369-.37v-3.835a.37.37 0 0 0-.37-.369h-3.835zm3.836 6.787h-3.836a2.586 2.586 0 0 1-2.582-2.582v-3.836a2.585 2.585 0 0 1 2.582-2.582h3.836a2.586 2.586 0 0 1 2.582 2.582v3.836a2.587 2.587 0 0 1-2.582 2.582zM338.582 99.213a.369.369 0 0 0-.369.37v3.835a.37.37 0 0 0 .37.369h3.835a.371.371 0 0 0 .369-.37v-3.835a.37.37 0 0 0-.37-.369h-3.835zm3.836 6.787h-3.836a2.586 2.586 0 0 1-2.582-2.582v-3.836A2.585 2.585 0 0 1 338.582 97h3.836A2.586 2.586 0 0 1 345 99.582v3.836a2.587 2.587 0 0 1-2.582 2.582zM338.582 112.213a.369.369 0 0 0-.369.37v3.835a.37.37 0 0 0 .37.369h3.835a.371.371 0 0 0 .369-.37v-3.835a.37.37 0 0 0-.37-.369h-3.835zm3.836 6.787h-3.836a2.586 2.586 0 0 1-2.582-2.582v-3.836a2.585 2.585 0 0 1 2.582-2.582h3.836a2.586 2.586 0 0 1 2.582 2.582v3.836a2.587 2.587 0 0 1-2.582 2.582zM326.582 99.213a.369.369 0 0 0-.369.37v3.835a.37.37 0 0 0 .369.369h3.836a.37.37 0 0 0 .369-.37v-3.835a.37.37 0 0 0-.369-.369h-3.836zm3.836 6.787h-3.836a2.586 2.586 0 0 1-2.582-2.582v-3.836A2.585 2.585 0 0 1 326.582 97h3.836A2.586 2.586 0 0 1 333 99.582v3.836a2.587 2.587 0 0 1-2.582 2.582zM326.582 112.213a.369.369 0 0 0-.369.37v3.835a.37.37 0 0 0 .369.369h3.836a.37.37 0 0 0 .369-.37v-3.835a.37.37 0 0 0-.369-.369h-3.836zm3.836 6.787h-3.836a2.586 2.586 0 0 1-2.582-2.582v-3.836a2.585 2.585 0 0 1 2.582-2.582h3.836a2.586 2.586 0 0 1 2.582 2.582v3.836a2.587 2.587 0 0 1-2.582 2.582zM277.582 99.213a.369.369 0 0 0-.369.37v3.835a.37.37 0 0 0 .369.369h3.836a.37.37 0 0 0 .369-.37v-3.835a.37.37 0 0 0-.369-.369h-3.836zm3.836 6.787h-3.836a2.586 2.586 0 0 1-2.582-2.582v-3.836A2.585 2.585 0 0 1 277.582 97h3.836A2.586 2.586 0 0 1 284 99.582v3.836a2.587 2.587 0 0 1-2.582 2.582zM277.582 111.213a.369.369 0 0 0-.369.37v3.835a.37.37 0 0 0 .369.369h3.836a.37.37 0 0 0 .369-.37v-3.835a.37.37 0 0 0-.369-.369h-3.836zm3.836 6.787h-3.836a2.586 2.586 0 0 1-2.582-2.582v-3.836a2.585 2.585 0 0 1 2.582-2.582h3.836a2.586 2.586 0 0 1 2.582 2.582v3.836a2.587 2.587 0 0 1-2.582 2.582zM265.582 99.213a.369.369 0 0 0-.369.37v3.835a.37.37 0 0 0 .369.369h3.836a.37.37 0 0 0 .369-.37v-3.835a.37.37 0 0 0-.369-.369h-3.836zm3.836 6.787h-3.836a2.586 2.586 0 0 1-2.582-2.582v-3.836A2.585 2.585 0 0 1 265.582 97h3.836A2.586 2.586 0 0 1 272 99.582v3.836a2.587 2.587 0 0 1-2.582 2.582zM265.582 111.213a.369.369 0 0 0-.369.37v3.835a.37.37 0 0 0 .369.369h3.836a.37.37 0 0 0 .369-.37v-3.835a.37.37 0 0 0-.369-.369h-3.836zm3.836 6.787h-3.836a2.586 2.586 0 0 1-2.582-2.582v-3.836a2.585 2.585 0 0 1 2.582-2.582h3.836a2.586 2.586 0 0 1 2.582 2.582v3.836a2.587 2.587 0 0 1-2.582 2.582zM253.582 99.213a.369.369 0 0 0-.369.37v3.835a.37.37 0 0 0 .37.369h3.835a.371.371 0 0 0 .369-.37v-3.835a.37.37 0 0 0-.37-.369h-3.835zm3.836 6.787h-3.836a2.586 2.586 0 0 1-2.582-2.582v-3.836A2.585 2.585 0 0 1 253.582 97h3.836A2.586 2.586 0 0 1 260 99.582v3.836a2.587 2.587 0 0 1-2.582 2.582zM253.582 111.213a.369.369 0 0 0-.369.37v3.835a.37.37 0 0 0 .37.369h3.835a.371.371 0 0 0 .369-.37v-3.835a.37.37 0 0 0-.37-.369h-3.835zm3.836 6.787h-3.836a2.586 2.586 0 0 1-2.582-2.582v-3.836a2.585 2.585 0 0 1 2.582-2.582h3.836a2.586 2.586 0 0 1 2.582 2.582v3.836a2.587 2.587 0 0 1-2.582 2.582zM253.835 127.12a.755.755 0 0 0-.748.761v10.24c0 .418.335.758.748.758h15.33c.412 0 .748-.34.748-.759v-10.239c0-.42-.336-.76-.748-.76h-15.33zm15.33 13.88h-15.33c-1.564 0-2.835-1.292-2.835-2.88v-10.239c0-1.589 1.271-2.881 2.835-2.881h15.33c1.564 0 2.835 1.292 2.835 2.881v10.24c0 1.587-1.271 2.879-2.835 2.879z" mask="url(#d)"/>
        <path fill="#898F99" d="M262 140c-.552 0-1-.477-1-1.066v-12.868c0-.589.448-1.066 1-1.066s1 .477 1 1.066v12.868c0 .589-.448 1.066-1 1.066M272 80c-1.104 0-2-.78-2-1.742V63.742c0-.963.896-1.742 2-1.742s2 .779 2 1.742v14.516c0 .962-.896 1.742-2 1.742M279 80c-1.104 0-2-.798-2-1.782V67.782c0-.985.896-1.782 2-1.782s2 .797 2 1.782v10.436c0 .984-.896 1.782-2 1.782M173.778 142a1.778 1.778 0 0 1-1.778-1.778V55.778c0-.982.796-1.778 1.778-1.778h84.444c.982 0 1.778.796 1.778 1.778v20.538a1.778 1.778 0 1 1-3.556 0v-18.76h-80.888v82.666c0 .982-.797 1.778-1.778 1.778M246.235 51c-.442 0-.887-.167-1.229-.505-15.375-15.098-41.749-18.81-56.1-19.678-5.492-.332-9.05-.227-9.086-.226-1.03.036-1.79-.744-1.82-1.73a1.776 1.776 0 0 1 1.71-1.841c.15-.005 3.74-.113 9.407.231 14.84.898 42.155 4.778 58.346 20.68.7.687.718 1.818.038 2.527-.345.36-.806.542-1.266.542" mask="url(#d)"/>
        <path fill="#898F99" d="M187 57c-1.104 0-2-.763-2-1.703V29.703c0-.94.896-1.703 2-1.703s2 .763 2 1.703v25.594c0 .94-.896 1.703-2 1.703M198 57c-1.104 0-2-.779-2-1.738V29.738c0-.96.896-1.738 2-1.738s2 .777 2 1.738v25.524c0 .96-.896 1.738-2 1.738M209 57c-1.104 0-2-.777-2-1.735v-23.53c0-.958.896-1.735 2-1.735s2 .777 2 1.735v23.53c0 .958-.896 1.735-2 1.735M220 56c-1.104 0-2-.74-2-1.653V34.653c0-.912.896-1.653 2-1.653s2 .74 2 1.653v19.694c0 .912-.896 1.653-2 1.653M231 57c-1.104 0-2-.75-2-1.676V39.676c0-.927.896-1.676 2-1.676s2 .75 2 1.676v15.648c0 .925-.896 1.676-2 1.676M241 57c-1.104 0-2-.649-2-1.448v-9.104c0-.8.896-1.448 2-1.448s2 .648 2 1.448v9.104c0 .8-.896 1.448-2 1.448M183.478 66.146a.409.409 0 0 0-.401.414v12.88c0 .228.18.414.401.414h13.045c.22 0 .4-.186.4-.414V66.56a.408.408 0 0 0-.4-.414h-13.045zM196.523 82h-13.045c-1.366 0-2.478-1.149-2.478-2.56V66.56c0-1.411 1.112-2.56 2.478-2.56h13.045c1.365 0 2.477 1.149 2.477 2.56v12.88c0 1.411-1.112 2.56-2.477 2.56zM183.478 90.146a.409.409 0 0 0-.401.414v12.88c0 .228.18.414.401.414h13.045c.22 0 .4-.186.4-.414V90.56a.408.408 0 0 0-.4-.414h-13.045zM196.523 106h-13.045c-1.366 0-2.478-1.149-2.478-2.56V90.56c0-1.411 1.112-2.56 2.478-2.56h13.045c1.365 0 2.477 1.149 2.477 2.56v12.88c0 1.411-1.112 2.56-2.477 2.56zM183.478 114.146a.409.409 0 0 0-.401.414v12.88c0 .228.18.414.401.414h13.045c.22 0 .4-.186.4-.414v-12.88a.408.408 0 0 0-.4-.414h-13.045zM196.523 130h-13.045c-1.366 0-2.478-1.149-2.478-2.56v-12.88c0-1.411 1.112-2.56 2.478-2.56h13.045c1.365 0 2.477 1.149 2.477 2.56v12.88c0 1.411-1.112 2.56-2.477 2.56zM206.478 66.146a.409.409 0 0 0-.401.414v12.88c0 .228.18.414.401.414h13.044a.409.409 0 0 0 .401-.414V66.56a.409.409 0 0 0-.401-.414h-13.044zM219.522 82h-13.044c-1.366 0-2.478-1.149-2.478-2.56V66.56c0-1.411 1.112-2.56 2.478-2.56h13.044c1.366 0 2.478 1.149 2.478 2.56v12.88c0 1.411-1.112 2.56-2.478 2.56zM206.477 90.146c-.22 0-.4.186-.4.414v12.88c0 .228.18.414.4.414h13.045a.409.409 0 0 0 .401-.414V90.56a.409.409 0 0 0-.401-.414h-13.045zM219.522 106h-13.045c-1.365 0-2.477-1.149-2.477-2.56V90.56c0-1.411 1.112-2.56 2.477-2.56h13.045c1.366 0 2.478 1.149 2.478 2.56v12.88c0 1.411-1.112 2.56-2.478 2.56zM206.477 114.146c-.22 0-.4.186-.4.414v12.88c0 .228.18.414.4.414h13.045a.409.409 0 0 0 .401-.414v-12.88a.409.409 0 0 0-.401-.414h-13.045zM219.522 130h-13.045c-1.365 0-2.477-1.149-2.477-2.56v-12.88c0-1.411 1.112-2.56 2.477-2.56h13.045c1.366 0 2.478 1.149 2.478 2.56v12.88c0 1.411-1.112 2.56-2.478 2.56zM228.477 66.146c-.22 0-.4.186-.4.414v12.88c0 .228.18.414.4.414h13.045a.409.409 0 0 0 .401-.414V66.56a.409.409 0 0 0-.401-.414h-13.045zM241.522 82h-13.045c-1.365 0-2.477-1.149-2.477-2.56V66.56c0-1.411 1.112-2.56 2.477-2.56h13.045c1.366 0 2.478 1.149 2.478 2.56v12.88c0 1.411-1.112 2.56-2.478 2.56zM228.478 90.146a.409.409 0 0 0-.401.414v12.88c0 .228.18.414.401.414h13.045c.22 0 .4-.186.4-.414V90.56a.408.408 0 0 0-.4-.414h-13.045zM241.523 106h-13.045c-1.366 0-2.478-1.149-2.478-2.56V90.56c0-1.411 1.112-2.56 2.478-2.56h13.045c1.365 0 2.477 1.149 2.477 2.56v12.88c0 1.411-1.112 2.56-2.477 2.56zM228.478 114.146a.409.409 0 0 0-.401.414v12.88c0 .228.18.414.401.414h13.045c.22 0 .4-.186.4-.414v-12.88a.408.408 0 0 0-.4-.414h-13.045zM241.523 130h-13.045c-1.366 0-2.478-1.149-2.478-2.56v-12.88c0-1.411 1.112-2.56 2.478-2.56h13.045c1.365 0 2.477 1.149 2.477 2.56v12.88c0 1.411-1.112 2.56-2.477 2.56zM149.496 136.495h22.008v-29.991h-22.008v29.99zM173.252 140h-25.504a1.75 1.75 0 0 1-1.748-1.753v-33.494a1.75 1.75 0 0 1 1.748-1.753h25.504a1.75 1.75 0 0 1 1.748 1.753v33.494a1.75 1.75 0 0 1-1.748 1.753z" mask="url(#d)"/>
        <path fill="#898F99" d="M173.936 114h-25.872c-.587 0-1.064-.448-1.064-1s.477-1 1.064-1h25.872c.587 0 1.064.448 1.064 1s-.477 1-1.064 1M173.936 122h-25.872c-.587 0-1.064-.448-1.064-1s.477-1 1.064-1h25.872c.587 0 1.064.448 1.064 1s-.477 1-1.064 1M173.936 130h-25.872c-.587 0-1.064-.448-1.064-1s.477-1 1.064-1h25.872c.587 0 1.064.448 1.064 1s-.477 1-1.064 1M58.5 108.479a3.026 3.026 0 0 0-3.021 3.02 3.027 3.027 0 0 0 3.022 3.022 3.026 3.026 0 0 0 3.02-3.022 3.024 3.024 0 0 0-3.02-3.02m0 9.521A6.508 6.508 0 0 1 52 111.5c0-3.584 2.916-6.5 6.5-6.5s6.5 2.916 6.5 6.5-2.916 6.5-6.5 6.5" mask="url(#d)"/>
        <path fill="#898F99" d="M59 117.49a5.516 5.516 0 0 0-5.51 5.509A5.517 5.517 0 0 0 59 128.51a5.516 5.516 0 0 0 5.51-5.511A5.516 5.516 0 0 0 59 117.49M59 132c-4.962 0-9-4.039-9-9.001S54.038 114 59 114c4.964 0 9 4.037 9 8.999 0 4.962-4.036 9.001-9 9.001" mask="url(#d)"/>
        <path fill="#898F99" d="M59 141c-1.104 0-2-.765-2-1.707v-8.586c0-.944.896-1.707 2-1.707s2 .763 2 1.707v8.586c0 .942-.896 1.707-2 1.707M39.5 127.52a3.985 3.985 0 0 0-3.98 3.98 3.984 3.984 0 0 0 3.98 3.98 3.984 3.984 0 0 0 3.98-3.98 3.985 3.985 0 0 0-3.98-3.98m0 11.48c-4.136 0-7.5-3.364-7.5-7.5 0-4.135 3.364-7.5 7.5-7.5s7.5 3.365 7.5 7.5c0 4.136-3.364 7.5-7.5 7.5" mask="url(#d)"/>
        <path fill="#898F99" d="M39.5 120.648c-1.021 0-1.853.83-1.853 1.852 0 1.021.832 1.852 1.853 1.852s1.853-.83 1.853-1.852a1.854 1.854 0 0 0-1.853-1.852m0 7.352a5.507 5.507 0 0 1-5.5-5.5c0-3.034 2.468-5.5 5.5-5.5s5.5 2.466 5.5 5.5c0 3.032-2.468 5.5-5.5 5.5M305.07 63h-.021a1.802 1.802 0 0 1-1.517-.845c-2.636-4.27-7.814-4.674-7.866-4.678-.987-.068-1.732-.9-1.661-1.86.07-.957.907-1.677 1.917-1.613.252.018 5.53.432 9.239 4.453 3.909-3.495 9.884-3.131 10.171-3.113.99.068 1.732.9 1.664 1.86-.07.958-.902 1.674-1.918 1.613-.053-.004-6.074-.343-8.49 3.371a1.807 1.807 0 0 1-1.518.812M393.5 123.156a6.35 6.35 0 0 0-6.344 6.343 6.35 6.35 0 0 0 6.345 6.345 6.35 6.35 0 0 0 6.343-6.345 6.35 6.35 0 0 0-6.343-6.343m0 14.844c-4.688 0-8.501-3.813-8.501-8.5 0-4.687 3.813-8.5 8.5-8.5 4.687 0 8.5 3.813 8.5 8.5 0 4.687-3.813 8.5-8.5 8.5M370.5 123.156a6.35 6.35 0 0 0-6.343 6.343 6.35 6.35 0 0 0 6.343 6.345 6.35 6.35 0 0 0 6.343-6.345 6.35 6.35 0 0 0-6.343-6.343m0 14.844c-4.687 0-8.5-3.813-8.5-8.5 0-4.687 3.813-8.5 8.5-8.5 4.687 0 8.5 3.813 8.5 8.5 0 4.687-3.813 8.5-8.5 8.5" mask="url(#d)"/>
        <path fill="#898F99" d="M393.883 130c-.445 0-.865-.255-1.038-.673l-5.766-13.869c-.228-.546.054-1.165.627-1.382.576-.219 1.224.052 1.449.597l5.766 13.87c.228.546-.054 1.166-.627 1.382a1.155 1.155 0 0 1-.411.075" mask="url(#d)"/>
        <path fill="#898F99" d="M382.095 132c-.21 0-.424-.057-.611-.176-.502-.319-.635-.963-.296-1.436l7.809-10.932c.338-.471 1.02-.6 1.52-.28.5.32.634.963.296 1.436l-7.809 10.932a1.115 1.115 0 0 1-.91.456" mask="url(#d)"/>
        <path fill="#898F99" d="M381.967 132a.915.915 0 0 1-.143-.01l-10.932-1.698c-.565-.089-.96-.67-.882-1.3.08-.628.596-1.067 1.168-.981l10.931 1.698c.565.088.96.67.881 1.3-.073.575-.516.991-1.023.991M388.948 121h-11.896c-.582 0-1.052-.448-1.052-1s.47-1 1.052-1h11.896c.58 0 1.052.448 1.052 1s-.471 1-1.052 1" mask="url(#d)"/>
        <path fill="#898F99" d="M370.071 131c-.211 0-.427-.063-.616-.198a1.085 1.085 0 0 1-.259-1.506l6.856-9.835a1.063 1.063 0 0 1 1.494-.263c.483.343.599 1.02.259 1.507l-6.856 9.837c-.207.298-.54.458-.878.458" mask="url(#d)"/>
        <path fill="#898F99" d="M381.955 132c-.412 0-.802-.252-.966-.668l-5.91-14.842a1.09 1.09 0 0 1 .57-1.407c.538-.23 1.145.037 1.363.588l5.908 14.841a1.086 1.086 0 0 1-.568 1.406 1.003 1.003 0 0 1-.397.082M387.845 116h-3.69c-.64 0-1.155-.448-1.155-1s.516-1 1.155-1h3.69c.638 0 1.155.448 1.155 1s-.517 1-1.155 1" mask="url(#d)"/>
        <path fill="#898F99" d="M377.945 116h-3.89c-.582 0-1.055-.448-1.055-1s.473-1 1.055-1h3.89c.582 0 1.055.448 1.055 1s-.473 1-1.055 1M393.5 123.156a6.35 6.35 0 0 0-6.344 6.343 6.35 6.35 0 0 0 6.345 6.345 6.35 6.35 0 0 0 6.343-6.345 6.35 6.35 0 0 0-6.343-6.343m0 14.844c-4.688 0-8.501-3.813-8.501-8.5 0-4.687 3.813-8.5 8.5-8.5 4.687 0 8.5 3.813 8.5 8.5 0 4.687-3.813 8.5-8.5 8.5M370.5 123.156a6.35 6.35 0 0 0-6.343 6.343 6.35 6.35 0 0 0 6.343 6.345 6.35 6.35 0 0 0 6.343-6.345 6.35 6.35 0 0 0-6.343-6.343m0 14.844c-4.687 0-8.5-3.813-8.5-8.5 0-4.687 3.813-8.5 8.5-8.5 4.687 0 8.5 3.813 8.5 8.5 0 4.687-3.813 8.5-8.5 8.5" mask="url(#d)"/>
        <path fill="#898F99" d="M371.973 135a5.98 5.98 0 0 1-5.973-5.973 1.027 1.027 0 0 1 2.054 0 3.923 3.923 0 0 0 3.92 3.92 1.027 1.027 0 0 1 0 2.053M393.973 135a5.98 5.98 0 0 1-5.973-5.973 1.027 1.027 0 0 1 2.054 0 3.923 3.923 0 0 0 3.92 3.92 1.027 1.027 0 0 1 0 2.053M393.883 130c-.445 0-.865-.255-1.038-.673l-5.766-13.869c-.228-.546.054-1.165.627-1.382.576-.219 1.224.052 1.449.597l5.766 13.87c.228.546-.054 1.166-.627 1.382a1.155 1.155 0 0 1-.411.075" mask="url(#d)"/>
        <path fill="#898F99" d="M382.095 132c-.21 0-.424-.057-.611-.176-.502-.319-.635-.963-.296-1.436l7.809-10.932c.338-.471 1.02-.6 1.52-.28.5.32.634.963.296 1.436l-7.809 10.932a1.115 1.115 0 0 1-.91.456" mask="url(#d)"/>
        <path fill="#898F99" d="M381.967 132a.915.915 0 0 1-.143-.01l-10.932-1.698c-.565-.089-.96-.67-.882-1.3.08-.628.596-1.067 1.168-.981l10.931 1.698c.565.088.96.67.881 1.3-.073.575-.516.991-1.023.991M388.948 121h-11.896c-.582 0-1.052-.448-1.052-1s.47-1 1.052-1h11.896c.58 0 1.052.448 1.052 1s-.471 1-1.052 1" mask="url(#d)"/>
        <path fill="#898F99" d="M370.071 131c-.211 0-.427-.063-.616-.198a1.085 1.085 0 0 1-.259-1.506l6.856-9.835a1.063 1.063 0 0 1 1.494-.263c.483.343.599 1.02.259 1.507l-6.856 9.837c-.207.298-.54.458-.878.458M387.845 116h-3.69c-.64 0-1.155-.448-1.155-1s.516-1 1.155-1h3.69c.638 0 1.155.448 1.155 1s-.517 1-1.155 1M130.649 134a1.785 1.785 0 0 1-1.786-1.782c0-.984.8-1.783 1.786-1.783.981 0 1.779-.797 1.779-1.774v-7.463c0-.951-1.562-7.633-7.86-7.633h-18.77c-.345.085-1.976.566-3.979 2.512-2.705 2.626-5.403 5.818-5.431 5.85a1.785 1.785 0 0 1-1.366.636h-6.573a3.875 3.875 0 0 0-3.877 3.865v2.233a1.78 1.78 0 0 0 1.78 1.774c.985 0 1.785.799 1.785 1.783 0 .983-.8 1.782-1.786 1.782-2.95 0-5.351-2.396-5.351-5.339v-2.233c0-4.098 3.342-7.43 7.449-7.43H94.2c.952-1.098 3.01-3.42 5.129-5.476 3.13-3.043 5.775-3.468 6.067-3.506.078-.01.157-.016.234-.016h18.937c8.142 0 11.433 7.903 11.433 11.198v7.463c0 2.943-2.4 5.339-5.351 5.339" mask="url(#d)"/>
        <path fill="#898F99" d="M121.251 134H95.75c-.967 0-1.749-.896-1.749-2s.782-2 1.749-2h25.502c.966 0 1.749.896 1.749 2s-.783 2-1.749 2M134.246 122H95.754c-.968 0-1.754-.896-1.754-2s.786-2 1.754-2h38.492c.968 0 1.754.896 1.754 2s-.786 2-1.754 2" mask="url(#d)"/>
        <path fill="#898F99" d="M116 134c-1.104 0-2-.799-2-1.782v-20.436c0-.983.896-1.782 2-1.782s2 .799 2 1.782v20.436c0 .983-.896 1.782-2 1.782M125 122c-1.104 0-2-.763-2-1.703v-8.594c0-.94.896-1.703 2-1.703s2 .763 2 1.703v8.594c0 .94-.896 1.703-2 1.703M109.127 118a1.126 1.126 0 0 1-.797-1.924l2.746-2.746a1.126 1.126 0 1 1 1.594 1.593l-2.746 2.746c-.22.221-.508.331-.797.331M104.127 118a1.125 1.125 0 0 1-.797-1.924l2.746-2.746a1.126 1.126 0 1 1 1.594 1.593l-2.746 2.746c-.22.221-.508.331-.797.331M112.009 125h-.012a.999.999 0 0 1-.997-1c0-.552.447-1 .997-1s1.003.448 1.003 1-.441 1-.991 1M126 129.428a2.574 2.574 0 0 0-2.572 2.571 2.575 2.575 0 0 0 2.571 2.573 2.576 2.576 0 0 0 2.573-2.573 2.575 2.575 0 0 0-2.573-2.57m0 8.571c-3.307 0-5.999-2.692-5.999-6s2.692-6 6-6 6 2.692 6 6-2.692 6-6 6M91 129.428A2.575 2.575 0 0 0 88.429 132a2.576 2.576 0 0 0 2.573 2.573 2.575 2.575 0 0 0 2.57-2.573 2.574 2.574 0 0 0-2.57-2.57M91 138c-3.31 0-6.001-2.692-6.001-6s2.692-6 6-6 6 2.692 6 6-2.692 6-6 6" mask="url(#d)"/>
        <path fill="#898F99" d="M90.169 134a1.168 1.168 0 0 1-.826-1.996l1.66-1.661a1.17 1.17 0 0 1 1.654 1.654l-1.662 1.66a1.16 1.16 0 0 1-.826.343M125.169 134a1.168 1.168 0 0 1-.826-1.996l1.66-1.661a1.17 1.17 0 0 1 1.654 1.654l-1.662 1.66a1.16 1.16 0 0 1-.826.343M411.578 78.56c.64 0 1.257.353 1.57.964 2.516 4.872 7.446 7.9 12.871 7.9 4.606 0 8.987-2.258 11.72-6.038.303-.419.771-.685 1.283-.728.52-.047 1.018.14 1.385.504a11.5 11.5 0 0 0 8.134 3.357c5.978 0 11.065-4.71 11.584-10.724a1.784 1.784 0 0 1 1.133-1.516c3.11-1.199 5.201-4.258 5.201-7.612 0-4.497-3.622-8.155-8.074-8.155a7.93 7.93 0 0 0-3.24.69c-.881.389-1.908 0-2.316-.877-1.914-4.113-6.045-6.771-10.525-6.771a11.556 11.556 0 0 0-7.63 2.894 1.755 1.755 0 0 1-2.355-.029c-2.687-2.478-6.155-3.842-9.769-3.842-5.655 0-10.834 3.367-13.192 8.58a1.783 1.783 0 0 1-1.821 1.032c-.417-.05-.839-.083-1.271-.083-5.915 0-10.725 4.858-10.725 10.831 0 5.974 4.81 10.834 10.725 10.834 1.575 0 3.109-.349 4.558-1.04.244-.116.5-.17.754-.17M426.019 91c-6.21 0-11.898-3.185-15.202-8.413a13.935 13.935 0 0 1-4.551.76c-7.867 0-14.266-6.464-14.266-14.41 0-7.944 6.4-14.408 14.266-14.408.143 0 .286.003.432.007 3.14-5.832 9.234-9.536 15.852-9.536 3.995 0 7.847 1.34 11 3.797a15.052 15.052 0 0 1 8.754-2.82c5.305 0 10.236 2.853 12.967 7.39a11.41 11.41 0 0 1 3.114-.431c6.404 0 11.615 5.263 11.615 11.73 0 4.457-2.562 8.553-6.476 10.511-1.15 7.437-7.415 12.919-14.983 12.919a14.971 14.971 0 0 1-9.15-3.103C435.985 88.784 431.114 91 426.02 91M93.17 36.665c.499 0 .987.206 1.333.6 3.142 3.565 7.645 5.443 12.37 5.166 4.716-.28 8.965-2.683 11.659-6.59a1.778 1.778 0 0 1 2.025-.675c2.858.955 5.949.235 8.067-1.882a7.883 7.883 0 0 0 1.255-1.652 1.78 1.78 0 0 1 2.259-.735c2.262 1.004 4.845.534 6.586-1.201a5.907 5.907 0 0 0 0-8.353 5.871 5.871 0 0 0-2.077-1.33 1.772 1.772 0 0 1-1.136-1.497c-.533-5.96-5.637-10.345-11.612-9.993a10.93 10.93 0 0 0-4.85 1.466c-.81.47-1.84.231-2.36-.542a13.415 13.415 0 0 0-11.876-5.882 13.314 13.314 0 0 0-10.097 5.604 1.778 1.778 0 0 1-2.272.543 8.9 8.9 0 0 0-4.658-1.007c-3.444.205-6.4 2.321-7.714 5.524a1.777 1.777 0 0 1-2.244.993 7.67 7.67 0 0 0-3.056-.438 7.634 7.634 0 0 0-5.288 2.565 7.608 7.608 0 0 0-1.921 5.547c.228 3.83 3.293 6.919 7.13 7.182a1.772 1.772 0 0 1 1.538 1.145c1.728 4.592 6.177 7.467 11.1 7.188 1.75-.105 3.414-.61 4.945-1.504.279-.163.588-.242.895-.242M105.943 46a18.68 18.68 0 0 1-13.139-5.378 14.452 14.452 0 0 1-5.263 1.323c-6.098.361-11.682-3.003-14.208-8.467-5.078-.866-8.999-5.146-9.313-10.371a11.126 11.126 0 0 1 2.809-8.108 11.164 11.164 0 0 1 7.733-3.749 11.21 11.21 0 0 1 2.924.207c2.068-3.62 5.877-6.035 10.089-6.286 1.741-.11 3.505.166 5.148.789a16.828 16.828 0 0 1 11.88-5.93c5.385-.33 10.67 2.016 14.085 6.173a14.36 14.36 0 0 1 5-1.213c7.563-.444 14.043 4.822 15.225 12.16a9.303 9.303 0 0 1 2.319 1.69c3.69 3.682 3.69 9.676 0 13.359a9.378 9.378 0 0 1-9.1 2.441 11.352 11.352 0 0 1-11.435 4.23 18.673 18.673 0 0 1-13.612 7.095 18.13 18.13 0 0 1-1.142.035M325.069 52h-.022a1.8 1.8 0 0 1-1.517-.847c-2.634-4.267-7.812-4.673-7.864-4.675-.987-.07-1.732-.901-1.661-1.861.07-.958.907-1.678 1.917-1.613.252.017 5.53.43 9.239 4.453 3.909-3.496 9.884-3.13 10.171-3.114.99.07 1.732.9 1.664 1.86-.07.959-.902 1.674-1.918 1.615-.056-.005-6.074-.344-8.492 3.371a1.81 1.81 0 0 1-1.517.811" mask="url(#d)"/>
    </g>
</svg>
