<svg xmlns="http://www.w3.org/2000/svg" width="201" height="200" viewBox="0 0 201 200">
    <g fill="none" fill-rule="evenodd">
        <path stroke="#A1C3C5" stroke-width="6" d="M172.326 6.132a2.153 2.153 0 0 1 2.049 2.163v168.39a2.154 2.154 0 0 1-1.996 2.16L37.375 186.45a3 3 0 0 1-2.023-.633l-19.518-15.455a3 3 0 0 1-1.138-2.352V14.233a3 3 0 0 1 1.769-2.735l16.063-7.23a9 9 0 0 1 3.87-.792l135.928 2.656z"/>
        <g stroke="#A1C3C5" stroke-linecap="round" stroke-linejoin="round" stroke-width="3" opacity=".7" transform="translate(157 153)">
            <path d="M1 21.75l11-.5"/>
            <ellipse cx="6.5" cy="8" rx="5.5" ry="7"/>
        </g>
        <g stroke="#A1C3C5" stroke-linecap="round" stroke-linejoin="round" stroke-width="4">
            <path d="M120.5 35c6.325 0 11.5 5.175 11.5 11.5S126.825 58 120.5 58 109 52.825 109 46.5 114.176 35 120.5 35zM85.5 35C91.825 35 97 40.175 97 46.5S91.825 58 85.5 58 74 52.825 74 46.5 79.175 35 85.5 35zM111 25l8 23M104 49l10-16M86 47l17 2M96 32.5h17M85 47l10-15M104 49l-8-23M113 24.5h-6M100 25.5h-7"/>
        </g>
        <g stroke="#A1C3C5" stroke-linecap="round" stroke-linejoin="round" stroke-width="4">
            <path d="M140.712 109.868L63.288 112c-1.816 0-3.288-1.44-3.288-3.217V92.225c0-3.206 2.656-5.804 5.932-5.804 3.545 0 6.442 2.765 6.53 6.232l.09 3.548c.033 1.335 1.147 2.402 2.512 2.409l53.48-1.186c1.208.006 2.191-.948 2.196-2.129l.015-2.307c.015-3.631 3.027-7.988 6.739-7.988 3.593 0 6.506 2.85 6.506 6.365v15.287c0 1.776-1.472 3.216-3.288 3.216zM70.5 113v9M133.5 111v8M138 81.87V78.68c0-4.795-3.838-8.681-8.573-8.681H75.573C70.838 70 67 73.886 67 78.681V85M103.5 72v23"/>
        </g>
        <g stroke="#A1C3C5" stroke-linecap="round" stroke-linejoin="round" stroke-width="4">
            <path d="M97.002 147c-.054.558 1.162 2.176 4.998 1.984M102 149l7-10-7 10zM120 143.49l-6.661 1.298c-.882.518-1.393-.026-1.568-.442l-1.818-4.146a4.1 4.1 0 0 0-1.521-1.831 33.992 33.992 0 0 0-8.717-4.137l-.495-.155a1.64 1.64 0 0 0-1.625.372L91 136.779M110.515 133.889a4.494 4.494 0 0 0 5.37-3.383 4.498 4.498 0 1 0-5.391 3.378l.02.005z"/>
            <path d="M82 155.577l2.25-2.103 7.21 2.426c.683.23 1.448.056 1.938-.44L103 137M108.966 166l-3.066-1.91 2.846-6.6c.445-.521.29-1.493-.343-1.909-2.503-1.647-5.874-4.277-6.403-4.581"/>
        </g>
        <circle cx="166" cy="165" r="34" fill="#A8ED3B"/>
        <path stroke="#A1C3C5" stroke-width="6" d="M34.217 3.474v180.333"/>
        <path stroke="#F5F9F9" stroke-linecap="round" stroke-linejoin="round" stroke-width="5" d="M151 165.37l9.922 9.63L181 155"/>
    </g>
</svg>
