<svg xmlns="http://www.w3.org/2000/svg" width="120" height="120" viewBox="0 0 120 120">
    <g fill="none" fill-rule="evenodd" stroke-linecap="round" stroke-linejoin="round">
        <path stroke="#E3EFEF" stroke-dasharray="20,20" stroke-width="9" d="M66 114c26.51 0 48-21.49 48-48S92.51 18 66 18 18 39.49 18 66s21.49 48 48 48z"/>
        <g stroke="#C3C5C9" stroke-width="4">
            <path d="M59.955 51.5H49M40.955 51.5H35.4M24.955 51.5H22M5 51.5H4M68.313 51.5h17.643M76.32 37l13.636 14.318M76.32 66l13.636-14.318"/>
        </g>
        <g stroke="#898F9A" stroke-width="4">
            <path d="M38.955 81.5H28M17 81.5h-2.6M47.313 81.5h17.643M55.32 67l13.636 14.318M55.32 96l13.636-14.318"/>
        </g>
    </g>
</svg>
