<svg xmlns="http://www.w3.org/2000/svg" width="100" height="100" viewBox="0 0 100 100">
    <g fill="none" fill-rule="evenodd" transform="rotate(-9 75.614 5.958)">
        <path stroke="#DBDCDF" stroke-width="3" d="M19.759 3.083v86h58.407c2.546 0 4.593-1.994 4.593-4.433V7.516c0-2.44-2.047-4.433-4.593-4.433H19.76z"/>
        <path stroke="#DBDCDF" stroke-width="3" d="M15.808 2.457v86h58.408c2.545 0 4.592-1.994 4.592-4.433V6.89c0-2.439-2.047-4.433-4.592-4.433H15.808z"/>
        <rect width="65" height="84" x="8.304" y="4" stroke="#C3C5C9" stroke-width="6" rx="6"/>
        <g fill="#D8D8D8" stroke="#C3C5C9" stroke-linecap="round" stroke-width="5">
            <path d="M.744 14.988h6.804M1.048 23.524H7.85M1.048 32.524H7.85M1.048 41.524H7.85M1.048 50.524H7.85M1.048 59.524H7.85M1.048 69.524H7.85M1.048 79.524H7.85"/>
        </g>
        <path stroke="#E9EEF1" stroke-linecap="round" stroke-linejoin="round" stroke-width="4" d="M18.304 14h13v13h-13zM18.304 38h13v13h-13zM18.304 63h13v13h-13z"/>
        <path fill="#E9EEF1" stroke="#E9EEF1" stroke-linecap="round" stroke-linejoin="round" stroke-width="4" d="M41.304 65h20v4h-20zM41.304 41h20v4h-20zM41.304 17h20v4h-20z"/>
        <path stroke="#898F9A" stroke-linecap="round" stroke-linejoin="round" stroke-width="3" d="M22.287 42.904l3.171 3.596 9.196-7.5M22.136 17.568l3.17 3.596 9.197-7.5M22.372 67.216l3.171 3.596 9.196-7.5"/>
    </g>
</svg>
