<svg xmlns="http://www.w3.org/2000/svg" width="201" height="200" viewBox="0 0 201 200">
    <g fill="none" fill-rule="evenodd">
        <path stroke="#E9EEF1" stroke-linecap="round" stroke-linejoin="round" stroke-width="4" d="M106.797 28.275a9.447 9.447 0 0 1 3.655-1.917c2.078-9.315 10.4-15.396 18.835-13.632 2.51.525 4.737 1.699 6.603 3.317 4.392-5.401 11.082-8.255 17.844-6.84 5.807 1.214 10.388 5.308 12.845 10.711 2.218-.912 4.657-1.207 7.111-.694 5.167 1.08 8.956 5.39 10.1 10.708a10.585 10.585 0 0 1 4.735-.092c6.355 1.328 10.382 8.167 8.991 15.274-1.279 6.542-6.701 11.017-12.512 10.651-3.384 6.757-10.38 10.719-17.444 9.241-2.555-.534-4.822-1.735-6.72-3.391-4.858 4.654-11.45 6.935-18.102 5.545-6.647-1.391-11.862-6.137-14.59-12.37-4.35.967-8.944-.75-11.719-4.886a13.302 13.302 0 0 1-1.502-3.047c-3.717 1.236-7.827-.055-10.23-3.638-3.116-4.646-2.176-11.335 2.1-14.94zM7.384 158.662a7.06 7.06 0 0 1 2.624-1.616c1.063-7.038 6.95-11.994 13.33-11.12 1.9.26 3.62 1.018 5.097 2.125 2.992-4.246 7.83-6.717 12.945-6.015 4.393.602 8.023 3.41 10.136 7.302 1.607-.794 3.409-1.14 5.266-.885 3.908.535 6.958 3.544 8.089 7.441a7.926 7.926 0 0 1 3.525-.314c4.808.659 8.167 5.537 7.501 10.897-.611 4.933-4.42 8.544-8.771 8.574-2.17 5.202-7.178 8.513-12.522 7.78-1.933-.265-3.686-1.04-5.188-2.174-3.379 3.714-8.174 5.754-13.205 5.065-5.03-.69-9.165-3.95-11.524-8.445-3.193.945-6.707-.094-8.992-3.027a9.92 9.92 0 0 1-1.28-2.19c-2.706 1.114-5.837.366-7.816-2.175-2.566-3.294-2.215-8.32.785-11.223z"/>
        <g transform="rotate(-9 370.796 -41.135)">
            <rect width="158" height="107" x="2.268" y="2.4" fill="#FFF" stroke="#A1A6AF" stroke-width="4" rx="10"/>
            <rect width="58" height="61" x="20.193" y="23.357" stroke="#C3C5C9" stroke-width="4" rx="2"/>
            <path stroke="#E9EEF1" stroke-linecap="round" stroke-width="5" d="M100.17 51.03h42"/>
            <rect width="45" height="17" x="98.577" y="23.248" fill="#E9EEF1" stroke="#E9EEF1" stroke-linecap="round" stroke-linejoin="round" stroke-width="2" rx="3"/>
            <path stroke="#E9EEF1" stroke-linecap="round" stroke-width="5" d="M100.294 66.043h42M100.416 81.443h42"/>
            <g stroke="#C3C5C9" stroke-width="4" opacity=".4" transform="translate(31.674 36.538)">
                <ellipse cx="18.366" cy="11.48" rx="10" ry="10.5"/>
                <path stroke-linecap="round" d="M35.256 46.207c0-9.389-7.835-17-17.5-17s-17.5 7.611-17.5 17"/>
            </g>
        </g>
    </g>
</svg>
