<svg xmlns="http://www.w3.org/2000/svg" width="300" height="300" viewBox="0 0 300 300">
    <g fill="none" fill-rule="evenodd">
        <path fill="#E9EEF1" fill-rule="nonzero" d="M231.5 172a6 6 0 0 1 0-12c7.655 0 15.077-1.575 21.923-4.587a6 6 0 1 1 4.832 10.984C249.894 170.075 240.826 172 231.5 172zm45.075-17.607a6 6 0 0 1-8.136-8.82 54.648 54.648 0 0 0 13.013-18.24 6 6 0 1 1 10.993 4.813 66.648 66.648 0 0 1-15.87 22.247zm21.21-43.503a6 6 0 0 1-11.962-.96c.117-1.462.177-2.933.177-4.41a54.445 54.445 0 0 0-2.973-17.824 6 6 0 1 1 11.343-3.918 66.447 66.447 0 0 1 3.63 21.744 67.32 67.32 0 0 1-.216 5.368zm-13.896-46.354a6 6 0 0 1-9.449 7.398 54.777 54.777 0 0 0-17.13-14.448 6 6 0 1 1 5.692-10.565 66.777 66.777 0 0 1 20.887 17.615zm-41.641-24.671a6 6 0 0 1-1.926 11.844 54.919 54.919 0 0 0-8.793-.709 54.67 54.67 0 0 0-13.63 1.71 6 6 0 0 1-2.986-11.623A66.675 66.675 0 0 1 231.532 39c3.614.002 7.194.292 10.716.865zM194.91 49.963a6 6 0 1 1 6.61 10.015 54.827 54.827 0 0 0-15.784 15.912 6 6 0 1 1-10.068-6.53 66.827 66.827 0 0 1 19.242-19.397zM166.95 89.456a6 6 0 1 1 11.647 2.886 54.629 54.629 0 0 0-1.597 13.13c0 3.158.263 6.255.784 9.297a6 6 0 1 1-11.828 2.025A66.985 66.985 0 0 1 165 105.47a66.634 66.634 0 0 1 1.95-16.014zm6.244 48.046a6 6 0 0 1 10.515-5.782 54.787 54.787 0 0 0 14.595 17.007 6 6 0 1 1-7.317 9.512 66.787 66.787 0 0 1-17.793-20.737zm37.084 31.038a6 6 0 0 1 3.828-11.373A54.427 54.427 0 0 0 231.453 160a6 6 0 1 1-.01 12 66.427 66.427 0 0 1-21.165-3.46z"/>
        <path fill="#E9EEF1" fill-rule="nonzero" d="M133 262.5a2.5 2.5 0 1 1 0-5c8.252 0 16.4-.802 24.363-2.382a2.5 2.5 0 1 1 .973 4.904A130.116 130.116 0 0 1 133 262.5zm44.95-8.015a2.5 2.5 0 1 1-1.735-4.689 123.98 123.98 0 0 0 21.999-10.721 2.5 2.5 0 0 1 2.623 4.256 128.98 128.98 0 0 1-22.887 11.154zm39.38-23.204a2.5 2.5 0 0 1-3.257-3.793 125.264 125.264 0 0 0 16.924-17.689 2.5 2.5 0 0 1 3.934 3.087 130.264 130.264 0 0 1-17.6 18.395zm28.887-35.368a2.5 2.5 0 1 1-4.368-2.432 123.774 123.774 0 0 0 9.737-22.454 2.5 2.5 0 1 1 4.762 1.526 128.774 128.774 0 0 1-10.13 23.36zm14.794-43.213a2.5 2.5 0 1 1-4.943-.755A125.49 125.49 0 0 0 257.5 133c0-1.824-.04-3.643-.117-5.457a2.5 2.5 0 0 1 4.995-.215c.081 1.885.122 3.776.122 5.672 0 6.641-.5 13.22-1.49 19.7zm-1.103-45.605a2.5 2.5 0 0 1-4.9.995 123.535 123.535 0 0 0-7.221-23.385 2.5 2.5 0 0 1 4.608-1.942 128.535 128.535 0 0 1 7.513 24.332zm-16.896-42.448a2.5 2.5 0 0 1-4.245 2.643 125.01 125.01 0 0 0-14.913-19.413 2.5 2.5 0 1 1 3.648-3.42 130.01 130.01 0 0 1 15.51 20.19zM212.45 30.73a2.5 2.5 0 1 1-3.07 3.946 124.576 124.576 0 0 0-20.703-13.063 2.5 2.5 0 1 1 2.24-4.47 129.576 129.576 0 0 1 21.533 13.587zm-40.508-21.27a2.5 2.5 0 1 1-1.502 4.768 123.846 123.846 0 0 0-23.958-5.006 2.5 2.5 0 0 1 .535-4.971 128.846 128.846 0 0 1 24.925 5.208zm-45.184-5.811a2.5 2.5 0 0 1 .238 4.994c-8.23.39-16.332 1.584-24.22 3.552a2.5 2.5 0 0 1-1.21-4.852 129.411 129.411 0 0 1 25.192-3.694zM82.246 13.825a2.5 2.5 0 1 1 1.961 4.599A124.24 124.24 0 0 0 62.75 30.199a2.5 2.5 0 0 1-2.824-4.126 129.24 129.24 0 0 1 22.321-12.248zM44.062 38.87a2.5 2.5 0 1 1 3.434 3.633 125.195 125.195 0 0 0-16.062 18.474 2.5 2.5 0 0 1-4.076-2.896 130.195 130.195 0 0 1 16.704-19.211zm-27.19 36.755a2.5 2.5 0 1 1 4.48 2.218 123.608 123.608 0 0 0-8.633 22.9 2.5 2.5 0 1 1-4.83-1.293 128.608 128.608 0 0 1 8.983-23.825zm-12.67 43.811a2.5 2.5 0 1 1 4.973.518c-.449 4.31-.675 8.661-.675 13.04 0 3.845.174 7.664.52 11.454a2.5 2.5 0 1 1-4.98.454c-.36-3.941-.54-7.912-.54-11.908 0-4.552.235-9.075.702-13.558zm3.28 45.555a2.5 2.5 0 0 1 4.847-1.231 123.58 123.58 0 0 0 8.345 23.002 2.5 2.5 0 1 1-4.508 2.162 128.58 128.58 0 0 1-8.683-23.933zm18.943 41.596a2.5 2.5 0 0 1 4.112-2.845 125.165 125.165 0 0 0 15.83 18.672 2.5 2.5 0 1 1-3.48 3.59 130.165 130.165 0 0 1-16.462-19.417zm32.149 32.402a2.5 2.5 0 1 1 2.877-4.09 124.31 124.31 0 0 0 21.306 12.047 2.5 2.5 0 0 1-2.02 4.573 129.31 129.31 0 0 1-22.163-12.53zm41.5 19.287a2.5 2.5 0 0 1 1.268-4.837 124.274 124.274 0 0 0 24.176 3.839 2.5 2.5 0 1 1-.296 4.991 129.274 129.274 0 0 1-25.147-3.993z"/>
        <path fill="#E9EEF1" fill-rule="nonzero" d="M199.5 300.5a4.5 4.5 0 0 1 0-9c4.81 0 9.572-.373 14.256-1.11a4.5 4.5 0 1 1 1.399 8.891A100.713 100.713 0 0 1 199.5 300.5zm35.89-6.635a4.5 4.5 0 0 1-3.23-8.4 90.579 90.579 0 0 0 12.889-6.167 4.5 4.5 0 1 1 4.512 7.788 99.579 99.579 0 0 1-14.17 6.78zm31.088-19.108a4.5 4.5 0 1 1-6.03-6.681 91.579 91.579 0 0 0 9.834-10.379 4.5 4.5 0 0 1 6.996 5.661 100.578 100.578 0 0 1-10.8 11.399zm22.168-28.902a4.5 4.5 0 1 1-8.019-4.087 90.398 90.398 0 0 0 5.464-13.202 4.5 4.5 0 0 1 8.562 2.773 99.398 99.398 0 0 1-6.007 14.516zm10.332-35.082a4.5 4.5 0 1 1-8.953-.914 92.117 92.117 0 0 0 .344-14.277 4.5 4.5 0 1 1 8.988-.479 101.545 101.545 0 0 1-.379 15.67zm-2.908-36.331a4.5 4.5 0 0 1-8.69 2.34 90.29 90.29 0 0 0-4.794-13.458 4.5 4.5 0 1 1 8.213-3.68 99.29 99.29 0 0 1 5.27 14.798zm-15.794-32.904a4.5 4.5 0 1 1-7.265 5.312 91.518 91.518 0 0 0-9.315-10.848 4.5 4.5 0 0 1 6.349-6.378 100.518 100.518 0 0 1 10.231 11.914zm-26.482-25.029a4.5 4.5 0 1 1-4.893 7.554 90.78 90.78 0 0 0-12.569-6.802 4.5 4.5 0 0 1 3.647-8.228 99.779 99.779 0 0 1 13.815 7.476zm-33.797-13.906a4.5 4.5 0 0 1-1.836 8.811 91.098 91.098 0 0 0-14.18-1.806 4.5 4.5 0 1 1 .435-8.99c5.269.256 10.473.921 15.58 1.985zm-36.48-.832a4.5 4.5 0 1 1 1.427 8.886 90.36 90.36 0 0 0-13.883 3.374 4.5 4.5 0 0 1-2.81-8.55 99.36 99.36 0 0 1 15.265-3.71zm-34.339 12.295a4.5 4.5 0 0 1 4.535 7.774 91.23 91.23 0 0 0-11.742 8.148 4.5 4.5 0 0 1-5.693-6.97 100.23 100.23 0 0 1 12.9-8.952zm-27.62 23.779a4.5 4.5 0 1 1 7.01 5.643 91.203 91.203 0 0 0-8.062 11.803 4.5 4.5 0 0 1-7.807-4.478 100.203 100.203 0 0 1 8.859-12.968zm-17.323 32.164a4.5 4.5 0 1 1 8.572 2.741 90.387 90.387 0 0 0-3.262 13.912 4.5 4.5 0 1 1-8.897-1.357 99.387 99.387 0 0 1 3.587-15.296zm-4.573 36.227a4.5 4.5 0 0 1 8.985-.509 91.015 91.015 0 0 0 1.923 14.167 4.5 4.5 0 1 1-8.795 1.909c-1.107-5.1-1.815-10.301-2.113-15.567zm8.672 35.415a4.5 4.5 0 0 1 8.2-3.707 90.81 90.81 0 0 0 6.897 12.52 4.5 4.5 0 1 1-7.518 4.949 99.81 99.81 0 0 1-7.58-13.762zm20.87 29.973a4.5 4.5 0 0 1 6.327-6.401 91.503 91.503 0 0 0 10.923 9.226 4.5 4.5 0 1 1-5.252 7.309 100.503 100.503 0 0 1-11.997-10.134zm30.143 20.487a4.5 4.5 0 1 1 3.617-8.241 90.28 90.28 0 0 0 13.495 4.689 4.5 4.5 0 0 1-2.272 8.708 99.28 99.28 0 0 1-14.84-5.156zm35.625 8.288a4.5 4.5 0 0 1 .401-8.99c1.371.06 2.747.091 4.127.091a4.5 4.5 0 0 1 0 9c-1.513 0-3.023-.034-4.528-.1z"/>
        <path fill="#B3D6D7" stroke="#B3D6D7" stroke-linecap="round" stroke-linejoin="round" stroke-width="4" d="M256.99 124.47c.027.023.054.047.08.072.13-.127.356-.332.75-.69-.117.056-.122.06-.14.073l-.143.082a142.808 142.808 0 0 0-.502.294l-.045.168zm1.323.34l.064-.07-.377-.972-.168.079.481.964zm-.493-.957l.01-.01.002.004-.012.006zm-13.132 9.778l-.573 2.574.798.975 1.53-.24-.107-.68-.503-.47-1.366 1.46.165-.025 1.683-1.098-.42-2.67-1.203.173-.004.001zm7.82-1.544l.716-.468-1.093-1.675-.456 1.948.833.195zm-5.41.675l-.224.16.482-.253-.259.093zm-3.312 1.195l-1.167.42.795.972.615-.356-.676-1.171-.263.038-1.014.586.059.412 1.392.3.259-1.201zm1.774 4.014l.49.598-.45-1.37-.04.772zm-5.906-.338l1.266-.363-.189-.66-1.022-.31-.31 1.02.255.313zm-.103 12.743l-.02.282.117-.548-.097.266zm-1.39 8.843l.674.343.63-1.235-1.329.828.026.064zm1.337 1.191l.615-.244-.147-.167-.468.411zm-.107 5.32l.078.04-.009-.052-.07.011zm2.376-.045v-.3l-.984-1.068-.344.056-.577.531.172 1.061 1.733-.28zm-4.372 4.022l.026.022.175-.13-.2.108zm-8.236 57.54l.003.266.968-.011-.168-.51-.01-.004-.793.26zm-.25.456l-.173.416.44.182.347.094-.614-.692zm-48.153-18.955l.642-.08 1.224-.721-.553-.94-1.313 1.741zm-.378-.888l2 2.314.721-.638a155.946 155.946 0 0 0-.926-.613l-1.747-1.145-.048.082zm3.66-1.902l-1.374.868.53.84 1.691-1.07-.846-.638zm-4.119 3.898l-.203.27 1.007.696.224-.526-1.028-.44zm4.583.963c.06-.08.119-.142.188-.199a35.217 35.217 0 0 0-.114-.08l-.203.086-.043.018c-.246.103-.41.17-.51.205-.004.002.007-.002.077-.016a1.691 1.691 0 0 1 .605-.014zm-39.276 19.71l-.068-.19-.737-.6-1.059.376.67 1.885 1.194-1.47zM36.692 142.522l-.843.591a2.23 2.23 0 0 1-.24.14.883.883 0 0 1 .222-.052c.298-.04.626-.008.95.151h.13v-.453a31.873 31.873 0 0 1-.188-.392l-.03.015zm-1.083.73a.321.321 0 0 1 .006-.001zm14.245-54.714l.068.048.071-.276-.139.228zm104.47 6.595l-.48 1.013.019.148.987.467.856-1.807-1.383.179zm7.834 5.28l.11-.077-.33-.174.22.25zm8.436 2.479l.968-.662-.09-.13-.885.788.007.004zm2.453.204l.751.006.018-2-1.33 1.494.56.5zm9.747 2.858l.08-.065.184-1.057-.818-1.006-.344 1.97.898.158zm6.397 4.957l.73-.513.09-.222-.345-.491-.98.598.342.561.163.067zm9.81 4.969l.74.205.423-1.526-.185-.2-1.224 1.135.246.386zm1.036 3.244l.001.001.002-.005-.003.004zm4.374 3.304l-.323-.239-1.176.4-.145.413.203.594.917.323.524-1.491zm17.826 2.221l-.054-.122-.496.127.55-.005zm33.797-29.514l.014-.235-.081.461.067-.226zm.365-3.893l-1.075-.321-.09.03.511 1.867 1.01-.277-.356-1.299zm3.026 1.21l.175-.151-.382-.449.207.6zm6.356 10.84l.587-.033.312-1.329-1.07.941.171.42zm-1.356 5.058l-1.31 1.513-.034.157-.03.13c-.04.174-.075.321-.11.444a3.404 3.404 0 0 1-.084.27c-.037.1-.037.1-.12.273-.095.245-.097.25-.907.869l.22-.104a.871.871 0 0 0-.115.073 313.121 313.121 0 0 0-1.582 1.14l-.014.01-1.095.795-.289 1.757-.651 2.292.98 2.304-.362.558.19.17.015.013a598.675 598.675 0 0 1 1.44 1.293l.894.804-.29 1.167a78.688 78.688 0 0 1-.242.944l-.021.08a27.01 27.01 0 0 1-.172.625 6.27 6.27 0 0 1-.087.278c-.027.08-.027.08-.08.208-.005.151-.005.151-.944 1.003a.504.504 0 0 1 .037-.016l-.117.068c-.103.06-.252.146-.44.257l-1.336.784-.007.004-.847.5 1.765.413-9.442 6.724.396.484-.403 7.814-3.572-3.342-2.194 5.14.346.494-.309 4.477-2.018 5.529 1.343 3.39 1.714 1.171-1.059.93.673 4.151-2.172 2.003 1.278 1.108-3.524 3.493-1.736.926a192.005 192.005 0 0 0-.842 1.043l-.043.053a50.54 50.54 0 0 0-.72.92l-.126.65-.012.059c-.042.219-.088.45-.134.678l-.061.305-.262 1.29-3.381.707-.79 1.182-.365 2.52-6.35 6.515-1.317 3.256-.876 4.87 2.053 5.217 4.644 6.096.151 3.248 3.49 5.943.107 9.408-1.087 2.622-4.674 1.534-3.53-3.97-1.56-.05-2.999-5.212-1.371-.41-2.54-4.18.595-1.61a3.315 3.315 0 0 1-.334-.195c-.602-.401-1.014-.871-1.014-1.809 0-.206.05-.883.166-2.316l.009-.112.116-1.426.001-.016-.174-.303h-.003c-.695-.112-.858-.141-1.014-.198-.532-.236-.532-.236-.611-.306l-.136-.104a9.08 9.08 0 0 1-.223-.187c-.149-.128-.35-.305-.6-.528-.433-.386-1.01-.907-1.696-1.531-.02-.017-.02-.017-.038-.035a697.794 697.794 0 0 1-1.713-1.564l-.866.187-3.977 3.345-3.975-3.773-2.89-.614-7.284 2.25-.371-.919-2.198.03.139.22-1.9 2.518a157.363 157.363 0 0 1 .074.052c.502.354.915.65 1.216.872.186.136.33.245.438.332.093.075.167.139.246.217.105.098.105.098.369.492.238.398.238.398.098 1.694-.439.74-.439.74-1.054 1.091-.365.117-.466.15-.609.162.207-.029.226-.035.296-.057l.066-.02c-.016.005-.052.02-.104.04l-.52.22-.046.02c-.314.132-.53.219-.724.288-.172.061-.32.106-.483.139-.216.042-.42.061-.69.028a2.062 2.062 0 0 1-1.334-.703 39.46 39.46 0 0 0-.935-.654l-.734 1.234-2.028-.867-1.271 1.227-3.526-1.774-1.817-1.294.034.527-10.348-.959-3.923 1.724-.042-.034-4.696 4.279-2.634.83-.495-.069-3.545 3.423-.091 2.12-.765.903.312 3.22 2.124 4.698-4.632 1.645-1.871-1.521c-.316-.01-.629-.022-.925-.034-1.14-.046-1.614-.075-1.923-.153-.38-.089-1.327-.508-2.383-1.018a25.529 25.529 0 0 1-1.3-.667 6.54 6.54 0 0 1-.557-.342 2.759 2.759 0 0 1-.36-.295c-.323-.317-.552-.642-.618-1.164a19.63 19.63 0 0 0-.15-.453c-.128-.375-.306-.877-.52-1.473l-.033-.092a285.297 285.297 0 0 0-.797-2.18l-.099-.266-.128-1.748a308.002 308.002 0 0 1-1.653-1.774l-.085-.092a90.955 90.955 0 0 1-1.442-1.595c-.217-.247-.389-.45-.518-.612a4.702 4.702 0 0 1-.221-.297c-.065-.096-.065-.096-.153-.254-.119-.204-.119-.204-.237-.955 0 .186.012.254.036.358a17.168 17.168 0 0 0-.15-.518 90.832 90.832 0 0 0-.924-2.812l-.154-.434c-.093-.107-.221-.25-.38-.425-.322-.355-.757-.823-1.276-1.376l-.056-.06a333.06 333.06 0 0 0-1.396-1.475l-3.047.046-3.268 4.916-9.854-6.724-.067-.967a96.338 96.338 0 0 0-.152-1.915 40.656 40.656 0 0 0-.133-1.28 377.267 377.267 0 0 0-3.386-4.048l-.068-.08a1061.3 1061.3 0 0 0-3.29-3.848l-4.622-.49-.413 2.635-1.964-.295a788.731 788.731 0 0 1-2.25-.34c-1.686-.256-3.373-.515-4.948-.761l-.468-.073c-5.815-.911-6.87-1.09-7.39-1.39-.203-.116-2.974-1.803-7.87-4.788l-.01-.006-5.375-3.278-1.77-1.08-.672-.41-1.016-.62.046-.908-10.062-.978-.192-1.595a101.804 101.804 0 0 0-.313-2.36 56.309 56.309 0 0 0-.128-.844c-.058-.36-.11-.657-.154-.87-.247-.319-.6-.805-1.15-1.572-.018-.023-.018-.023-.034-.047-.181-.252-.37-.515-.56-.783l-2.318.453v-2.681l-1.25-.34-2.126-3.16a165.82 165.82 0 0 1-1.803-.636l-.283-.103a39.132 39.132 0 0 1-1.564-.602 8.27 8.27 0 0 1-.628-.287 2.933 2.933 0 0 1-.385-.236c-.143-.107-.143-.107-.363-.33-.298-.345-.298-.345-.504-1.338 0-.229.016-.335.117-.925l.196-1.121.027-.155a42.804 42.804 0 0 0 .194-1.202l-1.62-3.931-.006-.014-1.241-3.002-.409-.988-.155-.375-.463-1.119 1.2-1.434-1.643-1.42.536-4.461c-.211-.25-.381-.548-.639-1.04l-.086-.165a30.359 30.359 0 0 1-.476-.973l-.187-.402v-2.368a58.913 58.913 0 0 1-.508-.874l-.086-.152c-.463-.821-.726-1.336-.848-1.75-.15-.51-.17-1.155-.147-2.35a55.56 55.56 0 0 1 .067-1.89l.035-.652.66-.812-1.236-4.899 2.424-3.727.862-4.722.087-5.856 4.574-7.712 3.183-9.669a304.046 304.046 0 0 0 .495-2.6l.046-.244c.145-.79.263-1.453.344-1.944a18.484 18.484 0 0 0 .092-.616c-.003-.057-.004-.07-.005-.138a9.99 9.99 0 0 1 0-.348c.003-.238.011-.56.025-.962.024-.696.062-1.623.113-2.727l.029-.634a762.41 762.41 0 0 1 .153-3.127l.014-.282.187-3.632 7.573 5.37.184-5.206 2.527.828a160.54 160.54 0 0 0 2.003.629c1.648.505 3.558 1.069 5.707 1.676a366.85 366.85 0 0 0 20.29 5.095c18.872 4.181 37.636 6.864 55.129 7.332 5.37.144 10.552.074 15.524-.223l1.21-2.857 3.933 1.862.376 2.91 1.911.63.943-.651 3.659.445 1.015 1.156.88-.573 2.202 1.922 1.736-1.186 1.65.819 2.664.023.583.52h8.404l-9.054 5.115-1.772 1.578.478 1.453 4.124-2.548 4.337-3.528 5.282.923-2.986 3.557 1.514 1.223 1.53.141 1.652-1.162 3.08 1.258.482.79 3.017.377.663 1.531 1.578.11 1.295 1.224 2.756.764 2.373 3.723-.64.593.704 1.199-.247 1.677 2.391.84 2.016 5.928-.167 3.87-1.793 2.327-.372 1.42.161.033 1.287.771.956-.878h1.322c.29-.26.579-.516.851-.759l.02-.018c.392-.347.722-.638.971-.856l.353-.304.144-.119c.047-.046.05-.05.383-.24l-.004-.009 1.622-.841 1.287-.669 3.377-3.935-1.235-2.796 1.28-.953.294-.219.65-.481.016-.011a87.448 87.448 0 0 1 .907-.659c.055-.038.055-.038.123-.082-.023-.043-.023-.043 1.108-.333a9359 9359 0 0 0 1.949-.018h.013l1.441-.013 3.146-1.765-.56-2.813 1.787-1.986.107-1.213 4.045-4.39 4.858-.233 4.118-1.15 5.968-1.68.28-1.414 2.135-1.313.747-2.023.346-6.202 1.551-5.188 3.892-1.067.167.49 1.132-.98 3.937 2.114 2.6 7.559 1.155.303.695 1.536 1.209-.066 1.986 4.852-5.018 4.41-.948-.054zm-79.01 100.866l-1.25 1.656-.46-2.85a228.423 228.423 0 0 1 1.71 1.194zm1.14 4.835zm-58.85 3.584v.003a.463.463 0 0 0-.002-.01zm71.088-105.964l.36.341-1.373 1.454.534-1.927.479.132zm39.68-3.448l.225-.011-.442.071.217-.06z"/>
    </g>
</svg>
