<svg xmlns="http://www.w3.org/2000/svg" xmlns:xlink="http://www.w3.org/1999/xlink" width="220" height="220" viewBox="0 0 220 220">
    <defs>
        <path id="a" d="M.37.126h11.99V48.95H.37z"/>
        <path id="c" d="M0 .722h219.945v70.102H0z"/>
    </defs>
    <g fill="none" fill-rule="evenodd">
        <path fill="#E9EEF1" d="M124.343 208c-1.295 0-2.43-.932-2.621-2.227l-7.694-51.794c-.21-1.423.792-2.746 2.243-2.952 1.465-.203 2.799.777 3.01 2.2l7.691 51.792c.21 1.426-.792 2.747-2.241 2.953-.131.02-.26.028-.388.028"/>
        <g transform="translate(96 13)">
            <mask id="b" fill="#fff">
                <use xlink:href="#a"/>
            </mask>
            <path fill="#E9EEF1" d="M9.675 48.95c-1.309 0-2.456-.922-2.65-2.203L.4 3.073C.185 1.665 1.2.356 2.664.153 4.14-.05 5.492.92 5.704 2.328l6.627 43.673c.213 1.41-.8 2.716-2.265 2.92a2.764 2.764 0 0 1-.391.028" mask="url(#b)"/>
        </g>
        <path fill="#E9EEF1" d="M63.38 69a2.568 2.568 0 0 1-1.565-.533L40.054 51.835c-1.16-.885-1.399-2.566-.535-3.754a2.574 2.574 0 0 1 3.665-.548l21.762 16.632c1.161.886 1.398 2.566.534 3.754A2.588 2.588 0 0 1 63.38 69M179.421 174a2.547 2.547 0 0 1-1.54-.519l-28.845-21.779a2.63 2.63 0 0 1-.524-3.65 2.551 2.551 0 0 1 3.605-.533l28.846 21.779a2.629 2.629 0 0 1 .525 3.65 2.557 2.557 0 0 1-2.067 1.052M59.608 192c-.543 0-1.09-.168-1.56-.517a2.595 2.595 0 0 1-.53-3.64l23.78-31.796a2.61 2.61 0 0 1 3.651-.53 2.593 2.593 0 0 1 .533 3.64l-23.78 31.795A2.603 2.603 0 0 1 59.607 192M142.571 60a2.59 2.59 0 0 1-1.537-.504 2.51 2.51 0 0 1-.523-3.548l18.853-24.927c.848-1.125 2.46-1.355 3.601-.516a2.51 2.51 0 0 1 .523 3.548l-18.853 24.926A2.576 2.576 0 0 1 142.571 60M92.693 188c-.246 0-.492-.033-.74-.1-1.429-.386-2.258-1.808-1.849-3.173l8.616-28.862c.408-1.367 1.902-2.153 3.326-1.766 1.43.388 2.259 1.81 1.85 3.175l-8.618 28.86c-.336 1.13-1.415 1.866-2.585 1.866M122.504 62c-.229 0-.457-.032-.688-.099-1.329-.384-2.1-1.797-1.719-3.154l4.996-17.894c.379-1.357 1.766-2.14 3.09-1.755 1.33.385 2.1 1.8 1.72 3.154l-4.996 17.894A2.508 2.508 0 0 1 122.504 62M145.415 179a2.578 2.578 0 0 1-2.193-1.22l-14.827-23.807a2.597 2.597 0 0 1 .82-3.576 2.577 2.577 0 0 1 3.565.824l14.826 23.807a2.6 2.6 0 0 1-2.191 3.972M87.548 66c-.818 0-1.616-.433-2.08-1.222l-11.095-18.8c-.718-1.216-.37-2.82.78-3.58 1.144-.765 2.663-.393 3.38.825l11.094 18.8c.718 1.217.37 2.821-.78 3.58-.404.27-.854.397-1.299.397"/>
        <path fill="#C3C5C9" d="M40.478 146c-11.304 0-23.042-.733-35.373-2.52-.703-.102-1.192-.768-1.092-1.487.1-.72.746-1.239 1.454-1.118 41.162 5.96 75.883.067 109.463-5.634 29.895-5.076 58.13-9.874 87.963-5.574.703.1 1.194.765 1.094 1.484-.1.72-.758 1.238-1.452 1.119-29.448-4.237-57.492.524-87.184 5.568C91.598 141.872 67.274 146 40.478 146M12.669 108c-.51 0-.996-.291-1.218-.78L4.113 90.831a1.297 1.297 0 0 1 .683-1.722 1.343 1.343 0 0 1 1.751.67l7.34 16.387a1.299 1.299 0 0 1-.683 1.723c-.173.073-.354.11-.535.11"/>
        <g transform="translate(0 66)">
            <mask id="d" fill="#fff">
                <use xlink:href="#c"/>
            </mask>
            <path fill="#898F9A" d="M7.405 64.056c31.7 4.196 65.493-.82 98.216-5.676 33.09-4.911 67.254-9.985 99.662-5.684l-9.523-22.933a2.615 2.615 0 0 1 .401-2.672l16.277-19.617c-31.67-4.168-65.422.839-98.11 5.69-33.05 4.905-67.167 9.968-99.549 5.698l9.571 21.704c.393.89.26 1.927-.346 2.685L7.405 64.056zM32.8 70.824c-10.337 0-20.576-.667-30.632-2.286A2.583 2.583 0 0 1 .17 66.905a2.623 2.623 0 0 1 .4-2.563l18.44-23.115L8.18 16.673a2.626 2.626 0 0 1 .311-2.64 2.56 2.56 0 0 1 2.446-.983c32.97 5.312 68.388.058 102.64-5.025 34.642-5.141 70.46-10.454 104.201-5.018.916.147 1.68.779 2.005 1.655a2.611 2.611 0 0 1-.439 2.577l-18.233 21.975 10.677 25.71c.36.868.227 1.868-.35 2.607a2.554 2.554 0 0 1-2.428.961c-32.965-5.31-68.386-.055-102.641 5.027-24.315 3.61-49.215 7.303-73.57 7.305z" mask="url(#d)"/>
        </g>
        <path fill="#898F9A" d="M61.222 97.215L66 97l-5.546 24.067-4.814.218-6.273-16.68-4.709 17.175-4.882.22L32 98.536l4.95-.225 5.16 16.16 4.568-16.598 4.85-.22 6.112 16.185zM78.283 108.596c-.284-1.668-1.528-3.162-3.982-2.803-2.229.325-3.224 2.282-3.122 3.838l7.104-1.035zM83 113.52c-.433 3.028-2.637 5.824-6.543 6.39-4.358.635-8.63-2.126-9.364-7.806-.695-5.371 2.598-9.405 6.664-9.998 4.906-.713 8.274 2.177 8.974 7.584.085.65.109 1.342.117 1.413l-11.363 1.652c.385 2.21 2.371 3.561 4.498 3.25 2.003-.292 2.962-1.513 3.285-3.09l3.732.605zM89.25 118L85 93.732 89.75 93 94 117.268zM99.852 107.738c.55 3.024 2.902 4.38 5.301 3.977 2.401-.404 3.326-2.132 3.479-3.487l4.368.633c-.27 2.914-2.474 6.222-7.098 6.995-5.117.86-9.816-2.202-10.744-7.33-.932-5.164 2.35-9.527 7.399-10.37 4.727-.793 7.92 1.575 9.173 4.27l-3.957 2.062c-.676-1.322-2.028-2.565-4.356-2.175-2.4.4-4.111 2.403-3.565 5.425M127.293 102.303c-.523-3.161-2.85-4.423-5.08-4.06-2.235.364-4.03 2.294-3.507 5.456.519 3.127 2.852 4.421 5.084 4.057 2.233-.36 4.029-2.293 3.503-5.453m4.57-.743c.852 5.13-2.342 9.49-7.392 10.31-5.048.819-9.479-2.298-10.332-7.43-.858-5.165 2.34-9.489 7.39-10.308 5.047-.822 9.473 2.264 10.334 7.428M135.881 109L134 92.611l4.417-.465.228 2c.755-1.7 2.847-2.796 4.724-2.993 2.331-.247 4.32.522 5.392 2.195 1.127-2.14 2.854-3.064 5.113-3.303 3.165-.335 6.403 1.179 6.907 5.576L162 106.249l-4.485.47-1.117-9.724c-.203-1.765-1.26-3.003-3.383-2.78-1.982.21-2.997 1.798-2.793 3.565l1.103 9.591-4.593.486-1.117-9.728c-.203-1.765-1.296-2.997-3.382-2.778-2.016.213-3.034 1.768-2.828 3.567l1.1 9.595-4.624.487zM176.652 96.012c-.093-1.688-1.172-3.326-3.678-3.287-2.277.038-3.505 1.851-3.582 3.404l7.26-.117zm4.173 5.488c-.783 2.944-3.32 5.434-7.31 5.499-4.455.072-8.429-3.209-8.514-8.934-.08-5.417 3.695-8.995 7.852-9.063 5.013-.083 8.064 3.216 8.146 8.666.01.656-.048 1.346-.046 1.414l-11.612.187c.131 2.24 1.97 3.833 4.149 3.799 2.044-.033 3.15-1.121 3.655-2.649l3.68 1.08z"/>
    </g>
</svg>
