<svg xmlns="http://www.w3.org/2000/svg" width="300" height="220" viewBox="0 0 300 220">
    <g fill="none" fill-rule="evenodd">
        <g stroke="#4E5863" stroke-linecap="round" stroke-linejoin="round" stroke-width="9">
            <path d="M124.433 157.598c15.338 2.162 26.092 16.75 23.895 32.419-2.196 15.668-16.543 26.72-31.882 24.558-15.338-2.161-26.09-16.75-23.895-32.42 2.196-15.668 16.544-26.718 31.882-24.557zM37.882 145.4c15.339 2.162 26.092 16.75 23.896 32.42-2.196 15.668-16.543 26.719-31.882 24.557-15.338-2.162-26.092-16.75-23.895-32.418 2.196-15.67 16.543-26.72 31.881-24.559zM106.869 128.977l11.514 57.788M76.366 185.685l31.688-37.174M31.833 174.567l44.533 11.118M65.873 141.598l42.314 5.964M30.871 174.432l36.097-33.648M75.67 183.65l-10.952-54.803M106.869 128.977l-12.502-1.762M73.773 127.218l-16.349-2.304"/>
        </g>
        <path fill="#B8BEC8" stroke="#B8BEC8" stroke-linecap="round" stroke-linejoin="round" stroke-width="4" d="M27.741 111.097l-5.44 9.743-1.797-11.594-10.877-3.059 9.856-4.636-1.282-11.633 7.89 8.728 10.084-4.13-4.981 10.03 7.515 9.08z"/>
        <g stroke="#4E5863" stroke-linecap="round" stroke-linejoin="round" opacity=".8">
            <path stroke-width="9" d="M274.931 82.079c6.666-.695 11.517-6.463 10.837-12.882l-.772-7.29c-1.08-10.195-10.537-17.565-21.123-16.461l-22.26 2.32s-10.44-9.685-20.861-17.582c-10.421-7.897-18.17-8.072-18.17-8.072l-64.115 6.686c-24.781 2.584-30.077 27.754-29.397 34.173l2.583 24.383c.68 6.42 6.636 11.06 13.3 10.365M155.975 94.966l88.035-9.18M110.5 61.5l131.957-14M174.772 25.012l7.074 66.774M138.58 28.786l2.233 27.733"/>
            <path stroke-width="6" d="M196.414 64.986H192"/>
            <path stroke-width="9" d="M155.975 94.966c.865 8.166-5.222 15.494-13.595 16.367-8.374.873-15.864-5.038-16.729-13.205-.865-8.166 5.222-15.493 13.596-16.366 8.373-.874 15.863 5.038 16.728 13.204zM274.334 82.623c.865 8.167-5.222 15.494-13.595 16.367-8.374.873-15.864-5.038-16.729-13.204-.865-8.167 5.222-15.494 13.596-16.367 8.373-.873 15.863 5.038 16.728 13.204z"/>
        </g>
        <g stroke="#A1C3C5" stroke-width="9">
            <path stroke-linecap="round" stroke-linejoin="round" d="M58.281 46.676c0 3.099.967 5.987 2.635 8.42C61.117 55.389 50 72.014 50 72.014s2.173 8.656 2.667 8.947c.56.328 9.689-1.513 9.689-1.513l2.295-3.517-.824-3.633 4.4-1.795-.49-4.08 3.9-1.007s2.168-3.112 2.279-3.104c.404.027.812.04 1.225.04C84.45 62.353 92 55.335 92 46.677 92 38.018 84.452 31 75.14 31c-9.31 0-16.859 7.018-16.859 15.676z"/>
            <path fill="#A1C3C5" d="M78.5 43.5z"/>
            <path stroke-linecap="round" stroke-linejoin="round" d="M74 29.804c-1.579-2.435-3.838-4.43-6.638-5.633-7.584-3.26-16.262.517-19.384 8.434a16.067 16.067 0 0 0-.89 8.622c.059.338-14.99 11.65-14.99 11.65s-1.353 8.676-1.055 9.115c.337.496 8.436 2.008 8.436 2.008l3.139-2.412.638-3.612 4.23-.101 1.072-3.903 3.541.445s2.887-2.086 2.975-2.04c.32.166.647.321.982.465a14.291 14.291 0 0 0 4.802 1.146"/>
        </g>
        <g stroke="#A1A6AF" transform="rotate(-6 1233.876 -1466.019)">
            <path stroke-width="10" d="M6.298 13.898a1 1 0 0 0-1 1v45a1 1 0 0 0 1 1h63a1 1 0 0 0 1-1v-45a1 1 0 0 0-1-1h-63zM29.62 5.702l.02-1.98a2 2 0 0 1-2 1.98h1.98zm15.937 0h.206l-.206.01v4.77l4.766-4.994-3.258.153a2 2 0 0 1-1.508-1.939v2zm-15.945.758l-5.289.248 5.234 5.046.055-5.294z"/>
            <path stroke-width="8" d="M1.62 29.285h71.522"/>
            <rect width="3" height="10" x="36.873" y="26.928" fill="#E9EEF1" stroke-width="8" rx="1.5"/>
        </g>
        <path stroke="#A1C3C5" stroke-linecap="round" stroke-linejoin="round" stroke-width="9" d="M257.704 173.37c-2.428.747-4.555 2.513-5.723 5.127-2.336 5.227-.365 11.693 4.477 14.717l18.499 11.56a1.475 1.475 0 0 0 2.136-.657l8.924-19.97c2.337-5.227.373-11.681-4.472-14.702-4.846-3.02-10.968-1.14-13.304 4.088l-.95 2.122-2.006-1.246c-2.423-1.51-5.154-1.784-7.581-1.038z" opacity=".4"/>
    </g>
</svg>
