<svg xmlns="http://www.w3.org/2000/svg" xmlns:xlink="http://www.w3.org/1999/xlink" width="150" height="150" viewBox="0 0 150 150">
    <defs>
        <path id="a" d="M4.72 20.007h33.253c2.54 0 4.598-2.1 4.598-4.69V4.934c0-2.59-2.059-4.691-4.598-4.691H4.72C2.18.242.122 2.343.122 4.932v10.386c0 2.589 2.059 4.689 4.598 4.689z"/>
    </defs>
    <g fill="none" fill-rule="evenodd" transform="translate(2.74 4)">
        <path stroke="#898F9A" stroke-width="8" d="M.26 18h143"/>
        <path stroke="#898F9A" stroke-width="4" d="M136.429 96H7.093C3.318 96 .26 92.931.26 89.146V6.854C.26 3.069 3.318 0 7.093 0h129.336c3.773 0 6.832 3.069 6.832 6.854v82.292c0 3.785-3.06 6.854-6.832 6.854z"/>
        <g stroke="#E9EEF1" stroke-linecap="round" stroke-linejoin="round" stroke-width="8">
            <path d="M15.26 37h15M47.26 37h36"/>
        </g>
        <g transform="translate(88.26 64)">
            <mask id="b" fill="#fff">
                <use xlink:href="#a"/>
            </mask>
            <use stroke="#C3C5C9" stroke-linecap="round" stroke-linejoin="round" stroke-width="3" xlink:href="#a"/>
            <path stroke="#C3C5C9" stroke-width="3" d="M-7.718 19.064l18.15-17.829M.772 19.064L18.92 1.235M9.262 19.064L27.41 1.235M17.751 19.064l18.15-17.829M26.241 19.064l18.15-17.829M34.73 19.064L52.88 1.235" mask="url(#b)"/>
        </g>
        <path stroke="#898F9A" stroke-linecap="round" stroke-width="8" d="M22.26 111.5h100" opacity=".4"/>
        <path stroke="#898F9A" stroke-linecap="round" stroke-width="8" d="M37.26 129.5h72.054" opacity=".15"/>
        <circle cx="28.261" cy="71" r="13" fill="#E9EEF1"/>
    </g>
</svg>
