<svg xmlns="http://www.w3.org/2000/svg" width="201" height="200" viewBox="0 0 201 200">
    <g fill="none" fill-rule="evenodd">
        <g transform="rotate(-6 463.542 -291.41)">
            <path stroke="#A1C3C5" stroke-width="5" d="M4.84 17.615a1.5 1.5 0 0 0-1.5 1.5v86a1.5 1.5 0 0 0 1.5 1.5h114a1.5 1.5 0 0 0 1.5-1.5v-86a1.5 1.5 0 0 0-1.5-1.5h-114zM42.54 17.037l38.162-1.846V3.819a.5.5 0 0 0-.5-.5h-37.03a.5.5 0 0 0-.5.495l-.133 13.223zM3.088 48.191h117.216"/>
            <circle cx="61.001" cy="47.873" r="10" fill="#A1C3C5"/>
        </g>
        <path stroke="#A1C3C5" stroke-width="4" d="M198 100c0 53.571-43.427 97-97 97-53.571 0-97-43.429-97-97C4 46.426 47.429 3 101 3c53.573 0 97 43.427 97 97z"/>
    </g>
</svg>
