<svg xmlns="http://www.w3.org/2000/svg" width="201" height="200" viewBox="0 0 201 200">
    <g fill="none" fill-rule="evenodd" stroke="#A1C3C5">
        <path stroke-width="6" d="M34 6l146.82 2.913c1.218.05 2.18 1.03 2.18 2.222v172.991c0 1.17-.928 2.14-2.124 2.219L34.936 194"/>
        <path stroke-width="6" d="M36 195.297v-192l-19.884 9.198a3 3 0 0 0-1.741 2.722v161.529a3 3 0 0 0 1.14 2.353L36 195.297z"/>
        <g stroke-linecap="round" stroke-linejoin="round" stroke-width="3" opacity=".7" transform="translate(157 153)">
            <path d="M1 21.75l11-.5"/>
            <ellipse cx="6.5" cy="8" rx="5.5" ry="7"/>
        </g>
        <g stroke-linecap="round" stroke-linejoin="round" stroke-width="4">
            <path d="M127 37c6.6 0 12 5.4 12 12s-5.4 12-12 12-12-5.4-12-12 5.4-12 12-12zM90 37c6.6 0 12 5.4 12 12s-5.4 12-12 12-12-5.4-12-12 5.4-12 12-12zM117 26l8 24M109 51l10-17M90 49l18 2M101 33.5h18M89 49l11-16M109 51l-8-24M118 25.5h-6M105 26.5h-7"/>
        </g>
        <g stroke-linecap="round" stroke-linejoin="round" stroke-width="4">
            <path d="M147.555 115.71L66.445 118A3.45 3.45 0 0 1 63 114.545V96.76c0-3.443 2.782-6.234 6.214-6.234 3.714 0 6.75 2.97 6.842 6.694l.094 3.81a2.649 2.649 0 0 0 2.632 2.588l56.027-1.273a2.292 2.292 0 0 0 2.3-2.287l.015-2.479c.016-3.9 3.172-8.579 7.06-8.579 3.765 0 6.816 3.06 6.816 6.836v16.42a3.45 3.45 0 0 1-3.445 3.455zM73.5 119v9M139.5 117v8M144 86.661V83.26c0-5.114-4-9.26-8.935-9.26h-56.13C74 74 70 78.146 70 83.26V90M108.5 76v24"/>
        </g>
        <g stroke-linecap="round" stroke-linejoin="round" stroke-width="4">
            <path d="M102.002 155c-.054.558 1.162 2.176 4.998 1.984M107 157l7-10-7 10zM126 151.353l-7.12 1.416c-.943.565-1.49-.028-1.677-.482l-1.943-4.524a4.453 4.453 0 0 0-1.626-1.997 36.018 36.018 0 0 0-9.318-4.513l-.53-.17a1.728 1.728 0 0 0-1.736.407L95 144.032M115.515 140.889a4.494 4.494 0 0 0 5.37-3.383 4.498 4.498 0 1 0-5.391 3.378l.02.005z"/>
            <path d="M86 163.555l2.356-2.214 7.554 2.553c.716.243 1.518.06 2.03-.462L108 144M113.966 175l-3.066-2.037 2.846-7.04c.445-.556.29-1.592-.343-2.037-2.503-1.757-5.874-4.562-6.403-4.886"/>
        </g>
    </g>
</svg>
