<svg xmlns="http://www.w3.org/2000/svg" width="201" height="200" viewBox="0 0 201 200">
    <g fill="none" fill-rule="evenodd" stroke="#A1C3C5">
        <path stroke-width="4" d="M198 100c0 53.571-43.427 97-97 97-53.571 0-97-43.429-97-97C4 46.426 47.429 3 101 3c53.573 0 97 43.427 97 97z"/>
        <g stroke-width="6">
            <path stroke-linecap="round" stroke-linejoin="round" d="M105.227 90.666a31.213 31.213 0 0 1-5.02 17.007c-.383.592 20.793 34.176 20.793 34.176s-4.138 17.485-5.08 18.072c-1.066.662-18.454-3.056-18.454-3.056l-4.373-7.104 1.57-7.339-8.38-3.627.934-8.24-7.432-2.034s-4.128-6.286-4.34-6.27a32.86 32.86 0 0 1-2.332.081C55.378 122.332 41 108.154 41 90.666 41 73.176 55.378 59 73.113 59c17.736 0 32.114 14.177 32.114 31.666z"/>
            <path fill="#A1C3C5" d="M77 84a7 7 0 1 0-14 0 7 7 0 0 0 14 0z"/>
            <path stroke-linecap="round" stroke-linejoin="round" d="M74.729 58.442a30.296 30.296 0 0 1 13.584-11.128c15.52-6.44 33.28 1.02 39.67 16.662a30.717 30.717 0 0 1 1.82 17.033c-.12.669 30.68 23.016 30.68 23.016s2.767 17.141 2.158 18.008c-.691.98-17.265 3.967-17.265 3.967l-6.423-4.766-1.307-7.134-8.657-.2-2.194-7.712-7.247.88s-5.907-4.122-6.086-4.032a30.39 30.39 0 0 1-2.012.92 30.118 30.118 0 0 1-9.826 2.264"/>
        </g>
    </g>
</svg>
