<svg xmlns="http://www.w3.org/2000/svg" width="206" height="204" viewBox="0 0 206 204">
    <g fill="none" fill-rule="evenodd">
        <g opacity=".6" transform="rotate(-6 296.76 -261.884)">
            <path stroke="#898F9A" stroke-width="5" d="M4.052 10.33a1.5 1.5 0 0 0-1.5 1.5v40a1.5 1.5 0 0 0 1.5 1.5h54a1.5 1.5 0 0 0 1.5-1.5v-40a1.5 1.5 0 0 0-1.5-1.5h-54zM22.286 8.449l17-.254V3.158h-17V8.45zM2.836 24.37h58"/>
            <circle cx="30.684" cy="25.758" r="5" fill="#898F9A"/>
        </g>
        <g stroke-linecap="round" stroke-linejoin="round">
            <path stroke="#898F99" stroke-width="4" d="M39.182 102.773c3.154.275 5.508 3.018 5.234 6.146l-3.195 36.527c-.274 3.128-3.068 5.42-6.222 5.144l-16.438-1.438c-3.154-.276-5.507-3.018-5.234-6.147l3.196-36.527c.274-3.128 3.068-5.42 6.222-5.144l16.437 1.439z" opacity=".7"/>
            <path fill="#D8D8D8" stroke="#E9EEF1" stroke-width="3" d="M27.313 109.355l6.642.581M26.35 143.308l2.989.262"/>
        </g>
        <g stroke="#898F99" stroke-linecap="round" stroke-linejoin="round" stroke-width="5">
            <path d="M198.058 162.038H71.785c-2.962 0-5.364-2.431-5.364-5.433V129.84c0-5.413 4.332-9.8 9.675-9.8 5.78 0 10.507 4.67 10.65 10.524l.147 5.991c.055 2.257 1.871 4.06 4.098 4.069l87.222.399c1.969.008 3.572-1.602 3.58-3.596l.026-6.298c.023-6.132 4.937-11.09 10.99-11.09 5.86 0 10.612 4.812 10.612 10.75v25.817c0 3.002-2.402 5.433-5.363 5.433zM83.588 163.474v15M185.553 163.28v15M191.938 119.932v-8.63c0-7.384-6.325-13.37-14.127-13.37H89.065c-7.802 0-14.127 5.986-14.127 13.37v8.63M134.969 98.825v42"/>
        </g>
        <g stroke="#E2EBEC">
            <path stroke-linecap="round" stroke-linejoin="round" stroke-width="5" d="M129.053 59.846l-3.532 8.516M178.294 68.528l.407 9.21M125.608 67.87l53.18 9.377M178.874 76.754c-.353 2.002-2.438 3.632-4.231 3.316l-46.396-8.181c-1.794-.316-2.905-2.51-2.552-4.512"/>
            <path stroke-linecap="round" stroke-linejoin="round" stroke-width="3" d="M162.852 40.928l5.909 1.041M173.94 42.883l.474.083" opacity=".5"/>
            <path stroke-width="5" d="M129.053 59.846l5.383-30.53a2 2 0 0 1 2.317-1.621l45.302 7.987A2 2 0 0 1 183.677 38l-5.383 30.53"/>
            <path stroke-width="3" d="M129.284 58.538l49.24 8.682"/>
        </g>
    </g>
</svg>
