<svg xmlns="http://www.w3.org/2000/svg" xmlns:xlink="http://www.w3.org/1999/xlink" width="201" height="200" viewBox="0 0 201 200">
    <defs>
        <path id="a" d="M198 100c0 53.571-43.427 97-97 97-53.571 0-97-43.429-97-97C4 46.426 47.429 3 101 3c53.573 0 97 43.427 97 97z"/>
    </defs>
    <g fill="none" fill-rule="evenodd">
        <mask id="b" fill="#fff">
            <use xlink:href="#a"/>
        </mask>
        <use stroke="#A1C3C5" stroke-width="4" xlink:href="#a"/>
        <g stroke="#A1C3C5" stroke-linecap="round" stroke-linejoin="round" stroke-width="6" mask="url(#b)">
            <path d="M227.915 138H61.086c-3.913 0-7.086-3.184-7.086-7.114V95.835C54 88.747 59.724 83 66.783 83c7.637 0 13.88 6.116 14.07 13.782l.194 7.847c.073 2.955 2.472 5.315 5.414 5.327l115.235.523c2.601.01 4.72-2.098 4.73-4.71l.034-8.246C206.49 89.493 212.983 83 220.98 83c7.743 0 14.02 6.302 14.02 14.076v33.81c0 3.93-3.173 7.114-7.085 7.114zM77 139v20M221 83V71.23C221 61.163 212.675 53 202.406 53H85.594C75.325 53 67 61.162 67 71.23V83M145 55v55"/>
        </g>
    </g>
</svg>
