<svg xmlns="http://www.w3.org/2000/svg" width="207" height="200" viewBox="0 0 207 200">
    <g fill="none" fill-rule="evenodd">
        <g fill="#898F9A" stroke="#898F9A" stroke-width="4">
            <path d="M13.397 150.696L3.073 71.874c-.603-4.596 2.602-8.831 7.144-9.442l134.7-18.076a8.161 8.161 0 0 1 6.146 1.659 8.373 8.373 0 0 1 3.183 5.57l1.413 10.937a1.949 1.949 0 0 1-1.659 2.19 1.939 1.939 0 0 1-2.166-1.678L150.422 52.1a4.488 4.488 0 0 0-1.706-2.985 4.36 4.36 0 0 0-3.291-.888l-134.7 18.076a4.408 4.408 0 0 0-2.95 1.729 4.51 4.51 0 0 0-.879 3.329l10.325 78.822c.323 2.462 2.575 4.19 4.998 3.875l134.7-18.08c2.433-.326 4.15-2.595 3.828-5.057l-1.381-11.065a1.945 1.945 0 0 1 1.664-2.185c1.062-.151 2.023.616 2.159 1.685l1.381 11.059c.602 4.59-2.602 8.826-7.143 9.435L22.725 157.927a8.398 8.398 0 0 1-1.096.073c-4.1 0-7.679-3.081-8.232-7.304z"/>
            <path d="M78.043 107.943L7.507 69.746A1.96 1.96 0 0 1 6.71 67.1a1.944 1.944 0 0 1 2.633-.802l70.534 38.199a5.036 5.036 0 0 0 5.763-.71l63.11-57.283a1.94 1.94 0 0 1 2.748.139c.72.8.658 2.036-.14 2.76l-63.112 57.285a8.928 8.928 0 0 1-6 2.312 8.867 8.867 0 0 1-4.203-1.057zM161.068 137c-.3 0-.605-.071-.89-.224l-45.14-24.048c-.944-.504-1.312-1.697-.82-2.664a1.907 1.907 0 0 1 2.604-.84l45.139 24.05c.945.502 1.314 1.695.82 2.663a1.922 1.922 0 0 1-1.713 1.063M16.96 155c-.53 0-1.06-.211-1.447-.626a1.908 1.908 0 0 1 .124-2.725l39.08-35.145a1.989 1.989 0 0 1 2.77.121c.73.787.673 2.007-.124 2.725l-39.079 35.146c-.376.337-.85.504-1.323.504"/>
        </g>
        <path fill="#C3C5C9" stroke="#C3C5C9" stroke-width="2" d="M138.076 84a2.086 2.086 0 0 1-2.058-1.824 2.095 2.095 0 0 1 1.787-2.357l35.844-4.801a2.078 2.078 0 0 1 2.333 1.805 2.097 2.097 0 0 1-1.787 2.358l-35.844 4.8a2.057 2.057 0 0 1-.275.019M151.019 106c-.999 0-1.866-.703-2.001-1.668-.147-1.051.63-2.016 1.738-2.156l40.956-5.16c1.118-.139 2.122.603 2.27 1.652.146 1.053-.632 2.018-1.738 2.157l-40.957 5.158c-.09.012-.18.017-.268.017M154.047 94c-1.015 0-1.897-.701-2.03-1.661-.146-1.045.647-2 1.77-2.133l9.9-1.19c1.12-.139 2.15.602 2.296 1.646.146 1.044-.647 2-1.77 2.134l-9.9 1.187a2.08 2.08 0 0 1-.266.017"/>
    </g>
</svg>
