<svg xmlns="http://www.w3.org/2000/svg" width="401" height="290" viewBox="0 0 401 290">
    <g fill="none" fill-rule="evenodd">
        <g stroke="#4E5863" stroke-linecap="round" stroke-linejoin="round" stroke-width="9">
            <path d="M173.206 202.638c21.473 3.026 36.529 23.45 33.453 45.386-3.074 21.935-23.16 37.408-44.634 34.381-21.474-3.026-36.528-23.451-33.453-45.387 3.074-21.936 23.161-37.406 44.634-34.38zM52.035 185.56c21.474 3.027 36.528 23.45 33.454 45.388-3.074 21.935-23.16 37.406-44.634 34.38-21.474-3.026-36.53-23.45-33.454-45.386 3.075-21.937 23.16-37.408 44.634-34.382zM148.616 162.568l16.12 80.904M105.912 241.96l44.363-52.044M43.566 226.394l62.346 15.566M91.223 180.238l59.238 8.349M42.22 226.204l50.535-47.106M104.939 239.111l-15.333-76.726M148.616 162.568l-17.502-2.467M102.282 160.105l-22.888-3.226"/>
        </g>
        <path fill="#B8BEC8" stroke="#B8BEC8" stroke-linecap="round" stroke-linejoin="round" stroke-width="6" d="M37.838 137.536l-7.616 13.64-2.517-16.231-15.228-4.283 13.8-6.49-1.796-16.287 11.045 12.22 14.119-5.783-6.974 14.043 10.521 12.712z"/>
        <g stroke="#4E5863" stroke-linecap="round" stroke-linejoin="round" stroke-width="9" opacity=".8">
            <path d="M383.904 96.91c9.332-.973 16.123-9.047 15.171-18.034l-1.08-10.206c-1.513-14.273-14.753-24.592-29.573-23.046l-31.163 3.25s-14.617-13.561-29.207-24.616c-14.59-11.057-25.436-11.302-25.436-11.302l-89.762 9.36c-34.694 3.619-42.108 38.856-41.156 47.843l3.617 34.137c.952 8.987 9.289 15.484 18.62 14.51M217.365 114.953l123.25-12.853M153.7 68.1l184.74-19.6M243.681 17.017l9.903 93.483M193.012 22.3l3.126 38.827M273.98 72.98h-6.18"/>
            <path d="M217.365 114.953c1.21 11.432-7.311 21.69-19.033 22.913-11.724 1.223-22.209-7.054-23.42-18.486-1.211-11.433 7.31-21.691 19.034-22.914 11.722-1.222 22.208 7.054 23.419 18.487zM383.067 97.673c1.211 11.433-7.31 21.691-19.033 22.913-11.723 1.223-22.208-7.053-23.42-18.486-1.21-11.433 7.311-21.691 19.034-22.914 11.723-1.222 22.208 7.054 23.42 18.487z"/>
        </g>
        <g stroke="#A1C3C5" stroke-width="6">
            <path stroke-linecap="round" stroke-linejoin="round" d="M80.593 47.347c0 4.338 1.355 8.38 3.69 11.787C84.564 59.544 69 82.82 69 82.82s3.042 12.118 3.734 12.525c.783.46 13.564-2.118 13.564-2.118l3.214-4.923-1.154-5.087 6.159-2.513-.686-5.712 5.462-1.41s3.034-4.356 3.19-4.345c.565.038 1.137.057 1.714.057 13.035 0 23.603-9.827 23.603-21.947 0-12.122-10.568-21.947-23.603-21.947-13.036 0-23.604 9.825-23.604 21.947z"/>
            <path fill="#A1C3C5" d="M105.6 42.9a3.3 3.3 0 1 1 6.6 0 3.3 3.3 0 0 1-6.6 0z"/>
            <path stroke-linecap="round" stroke-linejoin="round" d="M102.6 23.726c-2.21-3.41-5.373-6.202-9.293-7.886-10.617-4.563-22.767.723-27.138 11.807a22.493 22.493 0 0 0-1.246 12.07c.083.474-20.987 16.31-20.987 16.31S42.043 68.176 42.46 68.79c.473.694 11.81 2.811 11.81 2.811l4.395-3.377.893-5.056 5.923-.142 1.5-5.464 4.958.623s4.042-2.92 4.164-2.857c.448.233.906.45 1.376.652a20.008 20.008 0 0 0 6.722 1.604"/>
        </g>
        <g stroke="#A1A6AF" stroke-width="9" transform="rotate(-6 1555.196 -2051.886)">
            <path d="M6.417 16.957a1.5 1.5 0 0 0-1.5 1.5v67.8a1.5 1.5 0 0 0 1.5 1.5h93a1.5 1.5 0 0 0 1.5-1.5v-67.8a1.5 1.5 0 0 0-1.5-1.5h-93zM38.93 11.665l27.35-1.283v-4.9H38.993l-.064 6.183zM2.269 41h100.13"/>
            <rect width="6.4" height="16.2" x="50.522" y="36.599" fill="#E9EEF1" rx="3.2"/>
        </g>
        <path stroke="#A1C3C5" stroke-linecap="round" stroke-linejoin="round" stroke-width="9" d="M359.785 224.719c-3.399 1.044-6.376 3.517-8.011 7.177-3.272 7.318-.512 16.37 6.268 20.604l25.897 16.183a2.065 2.065 0 0 0 2.99-.919c4.166-9.318 8.33-18.639 12.495-27.957 3.271-7.319.523-16.355-6.262-20.584-6.784-4.228-15.354-1.595-18.624 5.723l-1.33 2.97-2.809-1.743c-3.392-2.116-7.215-2.499-10.614-1.454z" opacity=".4"/>
    </g>
</svg>
