<svg xmlns="http://www.w3.org/2000/svg" xmlns:xlink="http://www.w3.org/1999/xlink" width="201" height="200" viewBox="0 0 201 200">
    <defs>
        <circle id="a" cx="100" cy="100" r="100"/>
    </defs>
    <g fill="none" fill-rule="evenodd">
        <mask id="b" fill="#fff">
            <use xlink:href="#a"/>
        </mask>
        <circle cx="100" cy="100" r="96.5" stroke="#A1C3C5" stroke-width="7"/>
        <g stroke="#A1C3C5" stroke-linecap="round" stroke-linejoin="round" stroke-width="5" mask="url(#b)">
            <path d="M188.99 87H71.01C68.244 87 66 84.742 66 81.955V57.101C66 52.075 70.048 48 75.04 48c5.4 0 9.816 4.337 9.95 9.773l.137 5.564c.052 2.095 1.748 3.768 3.829 3.777l81.492.37c1.84.009 3.338-1.486 3.345-3.339l.024-5.847C173.839 52.604 178.43 48 184.085 48c5.476 0 9.915 4.469 9.915 9.981v23.974c0 2.787-2.244 5.045-5.01 5.045zM82.5 88v14M177.5 88v14M184 48v-8.239C184 32.714 178.108 27 170.84 27H88.16C80.893 27 75 32.714 75 39.761V48M130.5 28v39"/>
        </g>
        <g stroke="#A1C3C5" stroke-linecap="round" stroke-linejoin="round" mask="url(#b)">
            <path stroke-width="5" d="M39.263 68.505c2.823 0 5.13 2.262 5.13 5.078v25.778c0 2.816-2.307 5.078-5.13 5.078h-11.57c-2.823 0-5.13-2.262-5.13-5.078V73.583c0-2.816 2.307-5.078 5.13-5.078h11.57z"/>
            <path fill="#D8D8D8" stroke-width="2" d="M31 75.061h5M33 98.844h2.06" opacity=".499"/>
        </g>
        <g stroke="#A1C3C5" stroke-linecap="round" stroke-linejoin="round" mask="url(#b)">
            <path stroke-width="6" d="M79.5 139c8.525 0 15.5 6.975 15.5 15.5S88.025 170 79.5 170 64 163.025 64 154.5 70.976 139 79.5 139z"/>
            <path stroke-width="5" d="M30.5 139c8.525 0 15.5 6.975 15.5 15.5S39.025 170 30.5 170 15 163.025 15 154.5 21.975 139 30.5 139z"/>
            <path stroke-width="3" d="M80 163c-5.5 0-10-4.5-10-10" opacity=".5"/>
            <path stroke-width="5" d="M66 124l12 30M56 155.333L70 135M30 155.333h25.5M44 134.5h26M30 155l15-21M45.333 133L44 126M66 123.5h-7M47 124.5h-8"/>
        </g>
        <g stroke="#A1C3C5" mask="url(#b)">
            <path stroke-linecap="round" stroke-linejoin="round" stroke-width="5" d="M115 139l-2 8M160 139l2 8M113 146.5h49M162 146c0 2.033-1.606 4-3.259 4h-42.75c-1.652 0-2.991-1.967-2.991-4"/>
            <path stroke-linecap="round" stroke-linejoin="round" stroke-width="2" d="M141 116.5h5M151.26 116.5h.48" opacity=".5"/>
            <path stroke-width="5" d="M115 139v-28a2 2 0 0 1 2-2h41a2 2 0 0 1 2 2v28"/>
            <path stroke-width="3" d="M115 138.5h46"/>
        </g>
    </g>
</svg>
