<svg xmlns="http://www.w3.org/2000/svg" width="986" height="500" viewBox="0 0 986 500">
    <g fill="none" fill-rule="evenodd">
        <g stroke="#E9EEF1" stroke-dasharray="24,30" stroke-linecap="round" stroke-linejoin="round" stroke-width="9">
            <path d="M641.194 417.6c46.292 11.026 99.46 4.83 126.365-28.18M529.359 232.689c-2.572 36.735-.75 80.269 21.276 119.118M398.716 357.408c23.933-13.895 60.817-68.894 56.875-118.822M113.91 327.462c14.383 37.183 63.003 75.894 159.2 74.666M134.036 105.393c-9.806 14.883-22.121 37.696-31.394 64.76"/>
        </g>
        <g stroke-linecap="round" stroke-linejoin="round" stroke-width="9" opacity=".4">
            <path stroke="#1C7595" d="M913.157 191l2.967 23.628 21.146 10.952-21.555 10.123-3.882 23.495-16.288-17.371L872 245.396l11.488-20.859-10.67-21.29 23.389 4.48z"/>
            <path stroke="#8DC5D1" d="M59.168 348.022c-3.131 0-6.271 1.305-8.587 3.952-4.631 5.292-4.625 13.59 0 18.883l17.669 20.234a1.823 1.823 0 0 0 2.755 0l17.687-20.215c4.63-5.29 4.63-13.573 0-18.865-4.63-5.292-12.524-5.292-17.156 0l-1.881 2.147-1.918-2.185c-2.316-2.646-5.437-3.952-8.57-3.952z"/>
            <path stroke="#48888D" d="M791.345 409.562c-2.314 0-4.636.965-6.347 2.921-3.423 3.911-3.419 10.044 0 13.957l13.06 14.955a1.349 1.349 0 0 0 2.035 0l13.074-14.941c3.423-3.911 3.423-10.032 0-13.943-3.423-3.911-9.258-3.911-12.68 0l-1.39 1.587-1.419-1.615c-1.71-1.956-4.019-2.921-6.333-2.921z"/>
            <path stroke="#1C7595" d="M24.737 152.772H68.04c1.069 0 1.96-.356 2.674-1.247 3.029-3.566 4.81-8.199 4.81-13.01a19.546 19.546 0 0 0-19.601-19.603c-7.307 0-13.901 4.1-17.287 10.158-1.782-.89-3.921-1.248-5.88-1.248-7.841 0-14.257 6.416-14.257 14.257 0 3.564 1.248 6.95 3.564 9.445.713.891 1.782 1.247 2.673 1.247z"/>
            <g stroke="#8DC5D1">
                <path d="M611.096 247.869l44.383-6.785c.3 0 .5-.2.7-.3.1-.1.2-.1.3-.2 0 0 .1 0 .1-.1l.1-.1c.6-.6.7-1.2.5-1.8l-1.4-32.9v-.5s0-.1-.1-.2c0-.1-.1-.1-.1-.2 0 0 0-.1-.1-.1-.1-.2-.1-.3-.2-.4-.1-.1-.2-.2-.3-.2 0 0-.1 0-.1-.1-.1 0-.1-.1-.2-.1h-.2c-.1 0-.1 0-.2-.1H653.98l-33-1.4c-.6-.1-1.2 0-1.7.4 0 0-.1 0-.1.1v.1c-.1.1-.2.2-.2.3-.1.2-.3.5-.3.7l-7.583 43.685v.2c-.3 5-1.718 17.415-6.917 21.915-4.8 4.1-12.5 2.8-15.6 2a17.01 17.01 0 0 0-8.4.1c-3.2.9-5.6 2.7-7.3 5.2-4.2 6.2-5.2 10.4-5.3 10.6M612.997 246.531l42.015-42.015M619.279 202.784l37.3 37.7"/>
            </g>
            <path stroke="#48888D" d="M256.233 149l9.601 10.951 14.463-1.7-7.448 12.514 6.086 13.231-14.203-3.217-10.702 9.876-1.33-14.502-12.7-7.126 13.38-5.746z" opacity=".5"/>
        </g>
        <g stroke-linecap="round" stroke-linejoin="round">
            <g stroke="#707C91" stroke-width="9">
                <path d="M573.769 204.805l-172.18 15.063a7.34 7.34 0 0 1-7.951-6.672l-3.152-36.026c-.638-7.286 4.752-13.71 12.037-14.347 7.883-.69 14.877 5.033 15.762 12.895l.905 8.048a5.636 5.636 0 0 0 6.067 4.987l118.978-9.869a4.877 4.877 0 0 0 4.458-5.266l-.707-8.48c-.689-8.256 5.427-15.516 13.68-16.238 7.992-.7 15.036 5.212 15.735 13.203l3.04 34.75a7.34 7.34 0 0 1-6.672 7.952zM418.535 219.652l1.828 20.893M556.715 207.563l1.828 20.893M560.999 148.516l-1.081-12.356c-.925-10.57-10.244-18.39-20.813-17.465l-120.235 10.52c-10.572.924-18.39 10.242-17.465 20.813l1.08 12.356M479.956 125.92l4.946 56.54"/>
            </g>
            <g stroke="#4E5863" opacity=".808">
                <path stroke-width="9" d="M173.157 51c11.825 0 21.5 9.675 21.5 21.5S184.98 94 173.157 94c-11.825 0-21.5-9.675-21.5-21.5s9.676-21.5 21.5-21.5zM107.157 51c11.825 0 21.5 9.675 21.5 21.5 0 11.826-9.676 21.5-21.5 21.5-11.825 0-21.5-9.674-21.5-21.5 0-11.825 9.675-21.5 21.5-21.5zM156.657 32l16 40M140.657 76l20-32M105.657 72l35 4M127.657 44.5h33M105.657 72l21-28M128.657 44.5l-3-10.5M156.657 31.5h-10M131.657 33.5h-11"/>
                <path stroke-width="5" d="M109.657 85c-7.7 0-14-6.3-14-14M175.657 85c-7.7 0-14-6.3-14-14" opacity=".3"/>
            </g>
            <path stroke="#898F9A" stroke-width="9" d="M269.912 284.573c10.314-.902 17.943-9.995 17.04-20.308l-1.024-11.712c-1.433-16.38-15.874-28.498-32.255-27.065L219.23 228.5s-15.907-15.862-31.826-28.854c-15.918-12.993-27.885-13.52-27.885-13.52l-99.213 8.68c-38.347 3.355-47.11 43.54-46.208 53.854l3.428 39.176c.902 10.313 9.995 17.943 20.308 17.04M85.926 300.67l136.464-11.94M13.905 246.465L219.229 228.5M115.804 189.951l9.386 107.283M59.717 194.858l4.133 47.237M138.856 253.995l.071-.006"/>
            <path stroke="#898F9A" stroke-width="9" d="M85.896 300.328c1.13 12.923-8.429 24.314-21.35 25.445-12.923 1.13-24.316-8.428-25.446-21.35-1.13-12.924 8.429-24.315 21.351-25.446 12.922-1.13 24.314 8.428 25.445 21.351zM269.156 284.295c1.13 12.922-8.429 24.314-21.35 25.444-12.923 1.131-24.316-8.427-25.446-21.35-1.13-12.923 8.429-24.314 21.351-25.445 12.922-1.13 24.314 8.428 25.445 21.35z"/>
            <g stroke-width="6" opacity=".2">
                <path stroke="#1C7595" d="M136.69 205.03l17.459 14.65M155.414 203.392l17.46 14.65M68.76 294.913l-12.524 14.924"/>
                <path stroke="#898F9A" d="M252.02 278.88l-12.523 14.924"/>
            </g>
            <g stroke="#707C91">
                <path stroke-width="9" d="M626.408 343.406l-31.16-9.278a7.386 7.386 0 0 0-9.19 4.984l-21.056 70.92a7.398 7.398 0 0 0 4.976 9.2l31.161 9.278a7.385 7.385 0 0 0 9.188-4.984l21.058-70.92c1.163-3.917-1.064-8.035-4.977-9.2z"/>
                <path stroke-width="6" d="M602 348l10 3M586 411l6 2" opacity=".305"/>
            </g>
            <g stroke="#898F99" stroke-width="9">
                <path d="M320.09 408.07c-.14 3.302 3.016 12.881 12.973 11.745m0 0l20.14-30.922-20.14 30.922zM381 398.622l-15.728 7.933c-2.677 1.642-4.226-.081-4.757-1.4L355 392.023a12.872 12.872 0 0 0-4.614-5.799 101.252 101.252 0 0 0-26.444-13.103l-1.502-.492a4.824 4.824 0 0 0-4.929 1.178l-12.76 12.725m32.253-8.141l-17.146 28.866 17.146-28.866zm24.57-1.344c5.933 1.351 11.832-2.401 13.186-8.391 1.365-6.006-2.35-11.993-8.295-13.37-5.946-1.378-11.873 2.373-13.237 8.38-1.365 6.005 2.35 11.991 8.296 13.37l.05.01zM274 425.656l6.533-6.682 20.94 7.707a5.171 5.171 0 0 0 5.63-1.395l12.406-13.733M352 434l-19-14M354 467l-7-6.162 6.499-21.297a5.19 5.19 0 0 0-1.7-5.541"/>
            </g>
            <g stroke="#4E5863" opacity=".8">
                <path stroke-width="9" d="M865.117 345.626L752.14 331.732a1.522 1.522 0 0 1-1.32-1.697l8.993-73.059a1.518 1.518 0 0 1 1.689-1.328l112.976 13.893c.83.103 1.422.863 1.32 1.698l-8.993 73.059a1.516 1.516 0 0 1-1.688 1.328zM749.81 331.637l-7 20M866.81 346.637l2 21M742.81 352.637l126 15M868.81 368.546c-.52 4.266-5.269 7.558-9.515 7.036l-109.847-13.5c-4.246-.522-7.098-5.179-6.578-9.445"/>
                <path stroke-width="6" d="M835.81 279.637l14 2M858.81 283.069l1 .136" opacity=".3"/>
            </g>
        </g>
        <g fill="#494949" font-family="CircularStd-Book, Circular Std" font-size="18" font-weight="300" letter-spacing=".373">
            <text transform="translate(374 44.597)">
                <tspan x="4.235" y="18">Insurance for when you </tspan> <tspan x="5.833" y="40">rent, borrow, or share. </tspan>
            </text>
            <text transform="translate(47.287 44.597)">
                <tspan x="10.92" y="383.8">Surround wraps </tspan>
            </text>
            <text transform="translate(47.287 44.597)">
                <tspan x="0" y="405.8">around your life as </tspan>
            </text>
            <text transform="translate(47.287 44.597)">
                <tspan x="29.24" y="427.8">you live it. </tspan>
            </text>
            <text transform="translate(686.287 107.597)">
                <tspan x="19.258" y="18">Insurance for those who </tspan> <tspan x="25.099" y="40">prioritize courage over </tspan> <tspan x="71.179" y="62">convention. </tspan>
            </text>
        </g>
    </g>
</svg>
