<svg xmlns="http://www.w3.org/2000/svg" width="39" height="39" viewBox="0 0 39 39">
    <g fill="none" fill-rule="evenodd" stroke="#B8B8B8">
        <circle cx="28" cy="11" r="10" stroke-width="2"/>
        <path fill="#B8B8B8" fill-rule="nonzero" d="M29 10.117v5.687c0 .394-.095.691-.286.893a.954.954 0 0 1-.725.303.91.91 0 0 1-.714-.31c-.183-.207-.275-.502-.275-.886v-5.63c0-.388.092-.682.275-.879A.93.93 0 0 1 27.989 9c.293 0 .535.098.725.295.19.197.286.471.286.822zM28.011 7c-.278 0-.516-.087-.714-.262-.198-.175-.297-.422-.297-.742 0-.29.101-.528.304-.715A1.01 1.01 0 0 1 28.011 5c.259 0 .488.085.689.255.2.17.3.417.3.741 0 .315-.098.56-.293.738a1 1 0 0 1-.696.266z"/>
    </g>
</svg>
