<svg xmlns="http://www.w3.org/2000/svg" width="303" height="32" viewBox="0 0 303 32">
    <g fill="none" fill-rule="evenodd">
        <g fill="#ED3024">
            <path d="M14.327 7.852c-.235-1.393-1.382-3.526-4.53-3.526-2.354 0-3.884 1.511-3.884 3.17 0 1.393.883 2.46 2.707 2.815l3.472.682c4.53.888 6.943 3.851 6.943 7.377 0 3.852-3.207 7.734-8.973 7.734-6.59 0-9.503-4.267-9.885-7.852l4.5-1.215c.207 2.46 1.942 4.711 5.443 4.711 2.59 0 4.031-1.304 4.031-3.081 0-1.452-1.089-2.578-3.03-2.963l-3.472-.711c-4-.8-6.56-3.378-6.56-7.141C1.089 3.378 5.06 0 9.767 0c6.031 0 8.356 3.674 8.915 6.489l-4.355 1.363zM32.891 23.704c-.941 1.63-2.942 2.34-4.766 2.34-4.177 0-6.56-3.081-6.56-6.844V8.207h4.678v10.045c0 1.955.97 3.496 3.147 3.496 2.06 0 3.266-1.422 3.266-3.437V8.207h4.678V22.46c0 1.334.118 2.548.176 3.141h-4.442c-.088-.356-.177-1.185-.177-1.896zM51.367 12.86a6.188 6.188 0 0 0-1.412-.149c-2.383 0-4.442 1.156-4.442 4.919v7.94h-4.678V8.207h4.53v2.578c1.06-2.31 3.443-2.726 4.914-2.726.382 0 .735.03 1.088.06v4.74zM64.312 12.86a6.188 6.188 0 0 0-1.412-.149c-2.383 0-4.443 1.156-4.443 4.919v7.94H53.78V8.207h4.53v2.578c1.06-2.31 3.442-2.726 4.913-2.726.383 0 .736.03 1.089.06v4.74z"/>
            <path fill-rule="nonzero" d="M83.67 16.889c0 5.333-3.883 9.215-9.061 9.215-5.149 0-9.061-3.882-9.061-9.215 0-5.363 3.883-9.215 9.06-9.215 5.15 0 9.062 3.852 9.062 9.215zm-4.678 0c0-3.289-2.118-4.948-4.383-4.948-2.295 0-4.384 1.659-4.384 4.948 0 3.26 2.119 4.948 4.384 4.948s4.383-1.66 4.383-4.948z"/>
            <path d="M97.556 23.704c-.941 1.63-2.942 2.34-4.766 2.34-4.177 0-6.56-3.081-6.56-6.844V8.207h4.677v10.045c0 1.955.971 3.496 3.148 3.496 2.06 0 3.266-1.422 3.266-3.437V8.207h4.678V22.46c0 1.334.117 2.548.176 3.141h-4.442c-.118-.356-.177-1.185-.177-1.896zM110.442 25.6h-4.677V8.207h4.56v2.163c1.059-1.807 3.118-2.607 4.972-2.607 4.295 0 6.237 3.081 6.237 6.904V25.63h-4.678V15.437c0-1.956-.942-3.467-3.207-3.467-2.03 0-3.236 1.6-3.236 3.615V25.6h.03z"/>
            <path fill-rule="nonzero" d="M141.569 22.43c0 1.155.058 2.43.147 3.14h-4.443a13.65 13.65 0 0 1-.176-2.014c-.765 1.392-2.53 2.43-4.855 2.43-4.913 0-8.414-3.882-8.414-9.156 0-5.097 3.413-9.097 8.267-9.097 2.972 0 4.384 1.245 4.884 2.163V0h4.59v22.43zm-8.768-.623c2.383 0 4.237-1.837 4.237-4.977 0-3.111-1.854-4.83-4.237-4.83s-4.295 1.778-4.295 4.889 1.824 4.918 4.295 4.918z"/>
            <path d="M66.783 28.089h15.622V32H66.783z"/>
        </g>
        <g fill="#000">
            <path d="M155.01 25.584V.657h4.915v24.957h-4.915zM169.02 25.584h-4.651V8.286h4.532v2.159c1.06-1.804 3.12-2.603 4.974-2.603 4.268 0 6.24 3.076 6.24 6.86v10.912h-4.65V15.5c0-1.922-.942-3.46-3.179-3.46-2.03 0-3.208 1.597-3.208 3.578v9.965h-.059zM186.472 19.907c.118 1.36 1.118 2.631 3.15 2.631 1.53 0 2.265-.798 2.265-1.715 0-.768-.53-1.419-1.854-1.685l-2.266-.532c-3.326-.74-4.827-2.75-4.827-5.175 0-3.105 2.737-5.677 6.446-5.677 4.915 0 6.563 3.134 6.769 4.997l-3.885.887c-.147-1.035-.883-2.336-2.826-2.336-1.236 0-2.207.74-2.207 1.715 0 .858.618 1.36 1.59 1.538l2.442.532c3.385.71 5.121 2.78 5.121 5.322 0 2.81-2.178 5.707-6.68 5.707-5.18 0-6.976-3.37-7.182-5.352l3.944-.857zM210.223 23.721c-.942 1.627-2.943 2.336-4.768 2.336-4.18 0-6.563-3.075-6.563-6.83V8.286h4.65v9.994c0 1.922.971 3.49 3.15 3.49 2.06 0 3.266-1.42 3.266-3.4V8.315h4.65v14.193c0 1.33.118 2.543.177 3.134h-4.444c-.06-.384-.118-1.212-.118-1.922zM228.794 12.928a6.205 6.205 0 0 0-1.413-.147c-2.383 0-4.444 1.153-4.444 4.878v7.925h-4.65V8.286h4.533v2.573c1.06-2.277 3.443-2.72 4.915-2.72.382 0 .735.029 1.089.058v4.731h-.03z"/>
            <path fill-rule="nonzero" d="M235.416 15.649l4.238-.621c.972-.148 1.295-.621 1.295-1.242 0-1.242-.941-2.247-2.913-2.247-2.031 0-3.15 1.3-3.297 2.809l-4.12-.887c.294-2.72 2.766-5.707 7.387-5.707 5.474 0 7.505 3.105 7.505 6.594v8.516c0 .916.118 2.158.206 2.75h-4.267c-.118-.444-.177-1.42-.177-2.07-.883 1.36-2.531 2.572-5.092 2.572-3.678 0-5.915-2.483-5.915-5.204 0-3.134 2.295-4.85 5.15-5.263zm5.533 2.957v-.77l-3.885.592c-1.177.178-2.148.858-2.148 2.188 0 1.035.736 2.011 2.237 2.011 1.972-.03 3.796-.976 3.796-4.021z"/>
            <path d="M253.134 25.584h-4.65V8.286h4.503v2.159c1.06-1.804 3.12-2.603 4.974-2.603 4.267 0 6.24 3.076 6.24 6.86v10.912h-4.651V15.5c0-1.922-.942-3.46-3.179-3.46-2.03 0-3.208 1.597-3.208 3.578v9.965h-.03zM271.41 16.95c0 3.134 2.032 4.879 4.415 4.879 2.384 0 3.562-1.597 3.944-2.928l4.091 1.36c-.765 2.898-3.473 5.855-8.064 5.855-5.092 0-9.065-3.873-9.065-9.196 0-5.352 3.915-9.196 8.918-9.196 4.68 0 7.358 2.928 8.093 5.855l-4.179 1.42c-.412-1.45-1.5-2.928-3.826-2.928-2.325.03-4.326 1.744-4.326 4.879z"/>
            <path fill-rule="nonzero" d="M302.137 20.646c-.883 2.987-3.62 5.5-7.858 5.5-4.739 0-8.888-3.4-8.888-9.255 0-5.53 4.061-9.108 8.476-9.108 5.327 0 8.506 3.4 8.506 8.96 0 .68-.06 1.36-.06 1.449h-12.331c.118 2.277 2.03 3.932 4.356 3.932 2.178 0 3.355-1.094 3.914-2.631l3.885 1.153zm-4.356-5.677c-.059-1.715-1.177-3.4-3.855-3.4-2.414 0-3.738 1.832-3.856 3.4h7.711z"/>
        </g>
    </g>
</svg>
