<svg xmlns="http://www.w3.org/2000/svg" width="45" height="47" viewBox="0 0 45 47">
    <g fill="none" fill-rule="evenodd">
        <circle cx="22.5" cy="23.5" r="20.5" stroke="#979797" stroke-width="4"/>
        <path fill="#979797" fill-rule="nonzero" d="M24.007 35.042h-2.652V32.26c-3.614-.494-5.33-3.12-5.564-5.33l3.224-.78c.156 1.638 1.248 3.146 3.64 3.146 1.69 0 2.678-.806 2.678-1.95 0-.884-.65-1.56-1.95-1.846l-2.392-.52c-2.808-.624-4.55-2.392-4.55-4.888 0-2.756 2.132-4.784 4.914-5.226v-2.782h2.652v2.86c2.99.546 4.29 2.626 4.654 4.368l-3.198.91c-.156-.91-.832-2.418-2.964-2.418-1.664 0-2.574.962-2.574 2.028 0 .806.572 1.482 1.794 1.742l2.366.546c3.276.728 4.758 2.678 4.758 5.018 0 2.392-1.716 4.602-4.836 5.096v2.808z"/>
    </g>
</svg>
