<svg xmlns="http://www.w3.org/2000/svg" width="32" height="32" viewBox="0 0 32 32">
    <path fill="none" fill-rule="evenodd" stroke="#979797" stroke-width="3" d="M10.58 21.42C14.819 25.655 20.576 30 24.39 30a3.717 3.717 0 0 0 1.802-.422c1.561-.851 2.762-2.485 3.57-4.856.295-.868.542-2.128-.723-3.046l-4.343-3.152c-1.31-.95-2.475.348-3.328 1.295-.977 1.088-1.341 1.34-1.619 1.118-2.302-1.838-6.848-6.384-8.686-8.687-.222-.277.03-.64 1.118-1.619.947-.851 2.244-2.018 1.294-3.327L10.323 2.96c-.917-1.265-2.178-1.018-3.046-.723-2.37.808-4.005 2.009-4.856 3.57-1.94 3.56 3.183 10.634 8.16 15.611z"/>
</svg>
