<svg xmlns="http://www.w3.org/2000/svg" width="37" height="32" viewBox="0 0 37 32">
    <g fill="none" fill-rule="evenodd" stroke="#979797" stroke-width="3">
        <rect width="34" height="23" x="1.5" y="1.5" rx="3"/>
        <path fill="#FFF" stroke-linecap="round" stroke-linejoin="round" d="M26 28.703l-1.553 1.093-.798-1.723-1.892.17.17-1.892-1.723-.798L21.297 24l-1.093-1.553 1.723-.798-.17-1.892 1.892.17.798-1.723L26 19.297l1.553-1.093.798 1.723 1.892-.17-.17 1.892 1.723.798L30.703 24l1.093 1.553-1.723.798.17 1.892-1.892-.17-.798 1.723z"/>
        <path stroke-linecap="round" stroke-linejoin="round" d="M7 8.5h20.726M7 15.5h10.5"/>
    </g>
</svg>
