<svg xmlns="http://www.w3.org/2000/svg" width="413" height="301" viewBox="0 0 413 301">
    <g fill="none" fill-rule="evenodd">
        <g opacity=".25" transform="translate(5 3)">
            <path fill="#898F99" stroke="#898F99" stroke-linecap="round" stroke-linejoin="round" stroke-width="9" d="M0 293.07h402.804"/>
            <g fill="#898F99">
                <path d="M278.514 57h-.024a2.045 2.045 0 0 1-1.715-.94c-2.98-4.743-8.833-5.192-8.891-5.197-1.116-.075-1.958-1-1.879-2.067.08-1.063 1.025-1.863 2.168-1.792.285.02 6.25.48 10.443 4.949 4.42-3.884 11.174-3.48 11.499-3.46 1.118.076 1.958 1.001 1.88 2.067-.08 1.065-1.019 1.86-2.167 1.792-.06-.005-6.867-.38-9.6 3.746a2.052 2.052 0 0 1-1.714.902M301.513 45h-.025a2.043 2.043 0 0 1-1.714-.94c-2.979-4.742-8.832-5.193-8.89-5.196-1.116-.077-1.958-1.001-1.879-2.067.08-1.065 1.025-1.865 2.168-1.792.285.018 6.25.478 10.443 4.947 4.42-3.884 11.174-3.477 11.499-3.46 1.118.077 1.958 1.001 1.88 2.067-.08 1.065-1.019 1.86-2.167 1.794-.064-.005-6.867-.382-9.6 3.746-.374.56-1.02.901-1.715.901"/>
            </g>
            <g fill="#898F99" stroke="#898F99">
                <path d="M355.501 268.484c-4.734 0-8.583 3.85-8.583 8.581 0 4.735 3.849 8.584 8.583 8.584 4.732 0 8.581-3.85 8.581-8.584 0-4.732-3.849-8.581-8.581-8.581m0 20.082c-6.343 0-11.501-5.158-11.501-11.5 0-6.341 5.158-11.5 11.501-11.5 6.34 0 11.499 5.159 11.499 11.5 0 6.342-5.158 11.5-11.499 11.5M324.5 268.484c-4.733 0-8.582 3.85-8.582 8.581 0 4.735 3.85 8.584 8.582 8.584 4.733 0 8.582-3.85 8.582-8.584 0-4.732-3.85-8.581-8.582-8.581m0 20.082c-6.341 0-11.5-5.158-11.5-11.5 0-6.341 5.159-11.5 11.5-11.5s11.5 5.159 11.5 11.5c0 6.342-5.159 11.5-11.5 11.5"/>
                <path d="M356.464 277.566c-.612 0-1.19-.335-1.427-.883l-7.928-18.203c-.314-.717.073-1.53.862-1.814.792-.287 1.683.069 1.992.784l7.928 18.205c.314.715-.073 1.53-.862 1.813a1.655 1.655 0 0 1-.565.098"/>
                <path d="M340.423 279.566a1.46 1.46 0 0 1-.794-.23c-.653-.417-.826-1.259-.385-1.877l10.152-14.296c.44-.617 1.325-.784 1.976-.366.651.418.824 1.259.386 1.877l-10.152 14.296a1.447 1.447 0 0 1-1.183.596"/>
                <path d="M339.65 279.566a1.25 1.25 0 0 1-.188-.013l-14.295-2.121c-.74-.111-1.257-.838-1.154-1.625.105-.786.779-1.335 1.527-1.227l14.295 2.123c.74.11 1.255.836 1.152 1.624-.096.72-.674 1.24-1.338 1.24M349.572 265.566h-16.144c-.79 0-1.428-.672-1.428-1.5s.638-1.5 1.428-1.5h16.144c.788 0 1.428.672 1.428 1.5s-.64 1.5-1.428 1.5"/>
                <path d="M324.429 278.566c-.283 0-.57-.084-.822-.263a1.447 1.447 0 0 1-.345-2.009l9.14-13.113a1.418 1.418 0 0 1 1.992-.35c.645.457.8 1.359.346 2.009l-9.14 13.115c-.277.398-.721.611-1.171.611"/>
                <path d="M340.563 280.566c-.566 0-1.102-.34-1.328-.904l-8.126-20.08a1.466 1.466 0 0 1 .783-1.904c.74-.31 1.575.05 1.874.796l8.124 20.08a1.46 1.46 0 0 1-.781 1.902c-.18.075-.364.11-.546.11M347.46 258.566h-4.92c-.852 0-1.54-.672-1.54-1.5s.688-1.5 1.54-1.5h4.92c.85 0 1.54.672 1.54 1.5s-.69 1.5-1.54 1.5"/>
                <path d="M334.594 258.566h-5.188c-.776 0-1.406-.672-1.406-1.5s.63-1.5 1.406-1.5h5.188c.776 0 1.406.672 1.406 1.5s-.63 1.5-1.406 1.5M355.501 268.484c-4.734 0-8.583 3.85-8.583 8.581 0 4.735 3.849 8.584 8.583 8.584 4.732 0 8.581-3.85 8.581-8.584 0-4.732-3.849-8.581-8.581-8.581m0 20.082c-6.343 0-11.501-5.158-11.501-11.5 0-6.341 5.158-11.5 11.501-11.5 6.34 0 11.499 5.159 11.499 11.5 0 6.342-5.158 11.5-11.499 11.5M324.5 268.484c-4.733 0-8.582 3.85-8.582 8.581 0 4.735 3.85 8.584 8.582 8.584 4.733 0 8.582-3.85 8.582-8.584 0-4.732-3.85-8.581-8.582-8.581m0 20.082c-6.341 0-11.5-5.158-11.5-11.5 0-6.341 5.159-11.5 11.5-11.5s11.5 5.159 11.5 11.5c0 6.342-5.159 11.5-11.5 11.5"/>
                <path d="M356.464 277.566c-.612 0-1.19-.335-1.427-.883l-7.928-18.203c-.314-.717.073-1.53.862-1.814.792-.287 1.683.069 1.992.784l7.928 18.205c.314.715-.073 1.53-.862 1.813a1.655 1.655 0 0 1-.565.098"/>
                <path d="M340.423 279.566a1.46 1.46 0 0 1-.794-.23c-.653-.417-.826-1.259-.385-1.877l10.152-14.296c.44-.617 1.325-.784 1.976-.366.651.418.824 1.259.386 1.877l-10.152 14.296a1.447 1.447 0 0 1-1.183.596"/>
                <path d="M339.65 279.566a1.25 1.25 0 0 1-.188-.013l-14.295-2.121c-.74-.111-1.257-.838-1.154-1.625.105-.786.779-1.335 1.527-1.227l14.295 2.123c.74.11 1.255.836 1.152 1.624-.096.72-.674 1.24-1.338 1.24M349.572 265.566h-16.144c-.79 0-1.428-.672-1.428-1.5s.638-1.5 1.428-1.5h16.144c.788 0 1.428.672 1.428 1.5s-.64 1.5-1.428 1.5"/>
                <path d="M324.429 278.566c-.283 0-.57-.084-.822-.263a1.447 1.447 0 0 1-.345-2.009l9.14-13.113a1.418 1.418 0 0 1 1.992-.35c.645.457.8 1.359.346 2.009l-9.14 13.115c-.277.398-.721.611-1.171.611M347.46 258.566h-4.92c-.852 0-1.54-.672-1.54-1.5s.688-1.5 1.54-1.5h4.92c.85 0 1.54.672 1.54 1.5s-.69 1.5-1.54 1.5"/>
            </g>
            <path stroke="#898F99" stroke-width="5" d="M42.253 48.515c.724 0 1.434.303 1.938.88 4.568 5.221 11.115 7.972 17.985 7.566 6.857-.411 13.034-3.93 16.95-9.652a2.574 2.574 0 0 1 2.945-.99c4.155 1.399 8.65.345 11.73-2.757a11.538 11.538 0 0 0 1.824-2.419 2.58 2.58 0 0 1 3.285-1.076c3.288 1.47 7.044.782 9.575-1.76 3.353-3.373 3.353-8.86 0-12.234a8.53 8.53 0 0 0-3.02-1.948 2.593 2.593 0 0 1-1.651-2.193c-.776-8.73-8.195-15.153-16.884-14.636-2.49.151-4.861.873-7.05 2.147a2.567 2.567 0 0 1-3.434-.795C72.615 2.924 66.04-.364 59.18.032 53.286.387 47.933 3.38 44.5 8.242a2.573 2.573 0 0 1-3.303.794 12.86 12.86 0 0 0-6.772-1.475c-5.008.3-9.306 3.4-11.216 8.091a2.578 2.578 0 0 1-3.262 1.455 11.077 11.077 0 0 0-4.445-.642 11.07 11.07 0 0 0-7.688 3.758 11.195 11.195 0 0 0-2.793 8.124c.332 5.61 4.789 10.135 10.366 10.52a2.579 2.579 0 0 1 2.236 1.677c2.513 6.726 8.982 10.937 16.14 10.529a15.962 15.962 0 0 0 7.19-2.204 2.556 2.556 0 0 1 1.3-.354"/>
            <path stroke="#898F99" stroke-linecap="round" stroke-linejoin="round" stroke-width="5" d="M307.175 179.432c-1.34.463-2.731.698-4.153.698-7.18 0-13.022-5.923-13.022-13.202 0-7.277 5.841-13.198 13.022-13.198.13 0 .26.002.394.006 2.866-5.343 8.428-8.736 14.47-8.736 3.645 0 7.162 1.227 10.04 3.478a13.706 13.706 0 0 1 7.99-2.583c4.842 0 9.343 2.613 11.835 6.77a10.38 10.38 0 0 1 2.843-.395c5.845 0 10.602 4.821 10.602 10.746 0 4.083-2.339 7.835-5.911 9.629-1.05 6.812-6.768 11.834-13.676 11.834-3.05 0-5.957-1-8.352-2.842-3.109 3.473-7.555 5.503-12.205 5.503-5.668 0-10.86-2.917-13.877-7.708z"/>
            <path stroke="#898F99" stroke-width="7" d="M60.197 253v40.07M250.5 253v40.07"/>
            <rect width="288" height="168" x="11" y="85" fill="#FFF" stroke="#898F99" stroke-width="8" rx="5"/>
            <g fill="#FFF" stroke="#898F99" stroke-width="5" opacity=".7" transform="translate(257 209)">
                <circle cx="9" cy="9" r="9"/>
                <path stroke-linecap="round" d="M0 25.5h18"/>
            </g>
        </g>
        <path fill="#707C91" fill-rule="nonzero" d="M104.961 150.916l-3.58 1.523c-.332-1.142-1.478-2.861-4.163-2.58-1.999.21-3.177 1.632-3.03 3.034.123 1.164.966 2.01 2.549 2.145l3.013.257c3.927.341 6.25 2.631 6.563 5.615.342 3.252-2.028 6.819-6.951 7.336-5.61.59-8.465-2.76-9.11-5.739l3.712-1.416c.399 2.07 2.058 3.796 5.042 3.482 2.208-.232 3.315-1.464 3.158-2.956-.128-1.223-1.153-2.08-2.829-2.236l-3.016-.287c-3.444-.332-5.85-2.28-6.186-5.473-.396-3.76 2.675-6.978 6.673-7.398 5.132-.54 7.427 2.356 8.155 4.693zm11.698 11.862c1.939-.203 3.582-1.794 3.29-4.569-.292-2.774-2.23-3.988-4.168-3.785-1.94.204-3.583 1.795-3.29 4.57.288 2.744 2.228 3.988 4.168 3.784zm-1.258-11.964c4.386-.46 8.04 2.443 8.516 6.978.474 4.506-2.493 8.136-6.879 8.597-4.386.46-8.043-2.473-8.516-6.979-.477-4.535 2.493-8.135 6.88-8.596zm20.193-1.73l.42 3.998a6.008 6.008 0 0 0-1.205.006c-2.03.213-3.686 1.383-3.354 4.546l.706 6.713-3.968.417-1.543-14.68 3.849-.404.229 2.178c.69-2.033 2.682-2.605 3.935-2.736.328-.035.63-.036.931-.038zm12.127-1.274l.42 3.998a6.008 6.008 0 0 0-1.206.006c-2.029.213-3.685 1.382-3.353 4.545l.706 6.713-3.969.417-1.542-14.679 3.848-.405.23 2.178c.69-2.033 2.682-2.604 3.935-2.736.328-.034.63-.036.931-.037zm11.032 19.594l-4.207.442 2.658-8.002-7.584-12.174 4.446-.467 4.811 8.182 2.707-8.972 4.237-.446-7.068 21.437zm25.921-23.418l4.177-.44 4.157 9.126 1.72-9.743 3.939-.414-3.052 15.162-3.968.417-4.485-9.664-2.317 10.38-4.028.423-6.227-14.187 4.177-.44 3.706 9.144 2.201-9.764zm19.943 3.635l6.564-.69c-.214-1.455-1.319-2.787-3.586-2.549-2.06.217-3.03 1.887-2.978 3.24zm7.353 3.089l3.415.636c-.48 2.614-2.584 4.977-6.194 5.357-4.028.423-7.882-2.098-8.403-7.05-.492-4.685 2.649-8.092 6.408-8.487 4.535-.476 7.554 2.132 8.05 6.846.06.567.063 1.17.069 1.23l-10.502 1.104c.293 1.93 2.081 3.16 4.05 2.952 1.85-.194 2.768-1.225 3.107-2.588zM67.149 189.76c-2.029.214-3.576 1.854-3.297 4.51.28 2.655 2.167 3.965 4.195 3.752 2.03-.213 2.903-1.663 3.112-2.831l3.613.797c-.4 2.515-2.433 5.263-6.342 5.674-4.326.454-8.072-2.47-8.546-6.975-.476-4.535 2.523-8.139 6.79-8.587 3.998-.42 6.526 1.818 7.412 4.228l-3.425 1.567c-.486-1.186-1.543-2.342-3.512-2.135zm17.504 6.547c1.939-.204 3.582-1.795 3.29-4.57-.292-2.774-2.23-3.988-4.168-3.784-1.94.203-3.582 1.794-3.29 4.569.288 2.745 2.228 3.988 4.168 3.785zm-1.258-11.964c4.386-.461 8.04 2.443 8.516 6.978.474 4.505-2.493 8.135-6.879 8.596-4.386.46-8.042-2.473-8.516-6.978-.477-4.535 2.493-8.135 6.88-8.596zm22.34 12.945c-.092-.292-.224-.972-.286-1.568-.662 1.457-2.3 2.232-3.851 2.395-3.55.373-5.852-2.009-6.188-5.201l-.975-9.28 3.968-.416.89 8.473c.173 1.64 1.147 2.866 2.996 2.671 1.76-.185 2.65-1.485 2.471-3.185l-.897-8.533 3.968-.417 1.264 12.023c.12 1.134.315 2.14.428 2.64l-3.789.398zm12.215-1.284l-3.968.417-2.27-21.6 3.968-.418 2.27 21.601zm16.331-23.556l1.991 18.946c.104.985.276 2.052.399 2.643l-3.79.398a10.19 10.19 0 0 1-.327-1.685c-.534 1.233-1.932 2.285-3.901 2.492-4.177.439-7.506-2.53-7.973-6.975-.452-4.297 2.088-7.972 6.235-8.408 2.536-.267 3.84.652 4.339 1.384l-.881-8.384 3.908-.41zm-9.603 15.399c.276 2.625 1.99 4.013 4.079 3.794 2.029-.213 3.447-1.931 3.168-4.586-.276-2.626-2.011-3.922-4.04-3.708-2.029.213-3.483 1.874-3.207 4.5zm19.622-3.149l.887 8.444-3.968.417-1.543-14.68 3.85-.404.19 1.82c.735-1.616 2.424-2.487 4.005-2.653 3.64-.383 5.584 2.037 5.922 5.26l.972 9.249-3.968.417-.9-8.563c-.172-1.64-1.113-2.84-3.022-2.639-1.73.182-2.604 1.632-2.425 3.332zm10.281-11.94c-.122-1.164.756-2.281 2.158-2.429 1.582-.166 2.734 1.04 2.9 2.621.42 3.998-2.17 5.749-4.032 6.125l-.19-1.82c1.114-.298 2.264-1.414 2.18-2.793a1.22 1.22 0 0 1-.612.215c-1.342.141-2.272-.666-2.404-1.919zm13.393-1.287l.46 4.386 2.954-.31.37 3.52-2.953.31.646 6.147c.135 1.283.775 1.638 1.909 1.519.477-.05 1.008-.167 1.21-.248l.346 3.282c-.343.186-1.037.47-2.2.593-2.865.3-4.833-1.212-5.131-4.046l-.719-6.832-2.655.279-.37-3.521.746-.078c1.551-.163 2.16-1.253 2.023-2.566l-.216-2.059 3.58-.376zm19.413 8.518l.907 8.622-3.969.417-2.27-21.6 3.968-.418.856 8.145c.836-1.234 2.397-1.88 3.8-2.028 3.729-.392 5.732 2.022 6.07 5.244l.973 9.25-3.968.416-.9-8.563c-.173-1.64-1.113-2.839-3.023-2.638-1.67.175-2.523 1.532-2.444 3.153zm16.681-2.146l6.564-.69c-.214-1.455-1.319-2.787-3.586-2.549-2.059.217-3.03 1.887-2.978 3.24zm7.353 3.089l3.415.636c-.48 2.614-2.584 4.977-6.194 5.357-4.028.423-7.882-2.098-8.403-7.05-.492-4.685 2.65-8.092 6.408-8.487 4.535-.476 7.555 2.132 8.05 6.846.06.567.063 1.17.069 1.23l-10.502 1.104c.293 1.93 2.081 3.16 4.05 2.952 1.85-.194 2.768-1.226 3.107-2.588zm11.539 4.036l-3.969.417-2.27-21.601 3.968-.418 2.27 21.602zm9.172 4.767l-3.969.417-2.138-20.348 3.849-.404.188 1.79c.537-1.203 2.074-2.36 4.282-2.592 4.297-.452 7.118 2.57 7.576 6.926.467 4.445-1.963 8.019-6.11 8.455-2.029.213-3.605-.436-4.425-1.345l.747 7.1zm5.882-13.77c-.272-2.596-2.043-3.948-4.072-3.735-2.03.213-3.51 1.907-3.237 4.503.273 2.596 2.077 3.974 4.105 3.761 2.03-.213 3.48-1.904 3.204-4.53zm10.854-15.108l.591 14.81-2.894.304-2.5-14.609 4.803-.505zm-2.743 19.534c-.138-1.313.793-2.497 2.076-2.631a2.407 2.407 0 0 1 2.638 2.136c.138 1.312-.826 2.47-2.14 2.607a2.35 2.35 0 0 1-2.574-2.112z" opacity=".887"/>
        <path stroke="#808B9E" stroke-linecap="round" stroke-linejoin="round" stroke-width="5" d="M54.664 221.756c26.926-9.111 56.827-13.385 89.703-12.82 49.314.847 74.419-1.156 119.297-17.18M52.664 142.756c27.055-9.111 57.099-13.385 90.132-12.82 49.55.847 74.775-1.156 119.868-17.18" opacity=".228"/>
    </g>
</svg>
