<svg xmlns="http://www.w3.org/2000/svg" width="255" height="27" viewBox="0 0 255 27">
    <g fill="#FFF" fill-rule="evenodd">
        <path d="M12.08 6.625C11.882 5.45 10.915 3.65 8.26 3.65c-1.984 0-3.274 1.275-3.274 2.675C4.986 7.5 5.73 8.4 7.268 8.7l2.927.575c3.82.75 5.854 3.25 5.854 6.225 0 3.25-2.703 6.525-7.565 6.525-5.557 0-8.013-3.6-8.335-6.625l3.795-1.025c.174 2.075 1.637 3.975 4.59 3.975 2.182 0 3.398-1.1 3.398-2.6 0-1.225-.918-2.175-2.555-2.5l-2.927-.6C3.076 11.975.918 9.8.918 6.625.918 2.85 4.267 0 8.236 0c5.085 0 7.044 3.1 7.516 5.475l-3.672 1.15zM27.733 20c-.794 1.375-2.48 1.975-4.019 1.975-3.522 0-5.531-2.6-5.531-5.775V6.925h3.944V15.4c0 1.65.818 2.95 2.654 2.95 1.736 0 2.754-1.2 2.754-2.9V6.925h3.944V18.95c0 1.125.099 2.15.148 2.65h-3.745c-.075-.3-.149-1-.149-1.6zM43.311 10.85a5.214 5.214 0 0 0-1.19-.125c-2.01 0-3.746.975-3.746 4.15v6.7H34.43V6.925h3.82V9.1c.893-1.95 2.902-2.3 4.142-2.3.323 0 .62.025.918.05v4zM54.226 10.85a5.214 5.214 0 0 0-1.191-.125c-2.01 0-3.746.975-3.746 4.15v6.7h-3.944V6.925h3.82V9.1c.893-1.95 2.903-2.3 4.143-2.3.322 0 .62.025.918.05v4z"/>
        <path fill-rule="nonzero" d="M70.548 14.25c0 4.5-3.274 7.775-7.64 7.775-4.341 0-7.64-3.275-7.64-7.775 0-4.525 3.274-7.775 7.64-7.775 4.34 0 7.64 3.25 7.64 7.775zm-3.944 0c0-2.775-1.786-4.175-3.696-4.175-1.935 0-3.696 1.4-3.696 4.175 0 2.75 1.786 4.175 3.696 4.175 1.91 0 3.696-1.4 3.696-4.175z"/>
        <path d="M82.256 20c-.794 1.375-2.48 1.975-4.018 1.975-3.523 0-5.532-2.6-5.532-5.775V6.925h3.944V15.4c0 1.65.819 2.95 2.654 2.95 1.737 0 2.754-1.2 2.754-2.9V6.925h3.944V18.95c0 1.125.1 2.15.149 2.65h-3.746c-.1-.3-.149-1-.149-1.6zM93.121 21.6h-3.944V6.925h3.845V8.75c.893-1.525 2.63-2.2 4.192-2.2 3.622 0 5.26 2.6 5.26 5.825v9.25h-3.945v-8.6c0-1.65-.794-2.925-2.704-2.925-1.712 0-2.729 1.35-2.729 3.05v8.45h.025z"/>
        <path fill-rule="nonzero" d="M119.366 18.925c0 .975.05 2.05.124 2.65h-3.746c-.05-.3-.149-1.025-.149-1.7-.645 1.175-2.133 2.05-4.093 2.05-4.142 0-7.094-3.275-7.094-7.725 0-4.3 2.877-7.675 6.97-7.675 2.506 0 3.696 1.05 4.118 1.825V0h3.87v18.925zm-7.392-.525c2.009 0 3.572-1.55 3.572-4.2 0-2.625-1.563-4.075-3.572-4.075-2.01 0-3.622 1.5-3.622 4.125s1.538 4.15 3.622 4.15z"/>
        <path d="M56.31 23.7H69.48V27H56.31z"/>
        <g>
            <path d="M130.7 21.587V.554h4.143v21.058H130.7zM142.511 21.587h-3.92V6.99h3.821v1.822c.893-1.522 2.63-2.196 4.194-2.196 3.598 0 5.26 2.595 5.26 5.788v9.207h-3.92v-8.533c0-1.622-.794-2.92-2.68-2.92-1.712 0-2.705 1.348-2.705 3.02v8.408h-.05zM157.227 16.796c.1 1.148.943 2.22 2.655 2.22 1.29 0 1.91-.673 1.91-1.446 0-.649-.446-1.198-1.562-1.422l-1.911-.45c-2.804-.623-4.07-2.32-4.07-4.366 0-2.62 2.308-4.79 5.435-4.79 4.144 0 5.533 2.645 5.707 4.217l-3.275.748c-.125-.873-.745-1.97-2.383-1.97-1.042 0-1.86.623-1.86 1.446 0 .724.52 1.148 1.34 1.298l2.059.449c2.854.598 4.318 2.345 4.318 4.49 0 2.37-1.837 4.816-5.633 4.816-4.368 0-5.882-2.845-6.055-4.516l3.325-.724zM177.253 20.015c-.794 1.372-2.482 1.97-4.02 1.97-3.524 0-5.534-2.594-5.534-5.762V6.99h3.92v8.433c0 1.622.82 2.944 2.656 2.944 1.737 0 2.755-1.197 2.755-2.869V7.016h3.92v11.976c0 1.123.1 2.146.15 2.645h-3.748c-.05-.325-.099-1.023-.099-1.622zM192.912 10.908a5.228 5.228 0 0 0-1.192-.124c-2.01 0-3.747.973-3.747 4.116v6.687h-3.92V6.99h3.821v2.17c.893-1.92 2.903-2.294 4.144-2.294.323 0 .62.024.918.05v3.991h-.024z"/>
            <path fill-rule="nonzero" d="M198.495 13.204l3.574-.524c.818-.125 1.091-.524 1.091-1.048 0-1.048-.794-1.896-2.456-1.896-1.713 0-2.656 1.097-2.78 2.37l-3.474-.749c.248-2.295 2.333-4.815 6.229-4.815 4.616 0 6.328 2.62 6.328 5.564v7.185c0 .774.1 1.822.174 2.32h-3.599c-.099-.374-.149-1.197-.149-1.746-.744 1.148-2.134 2.17-4.293 2.17-3.102 0-4.988-2.095-4.988-4.39 0-2.645 1.936-4.092 4.343-4.441zm4.665 2.495v-.65l-3.275.5c-.993.15-1.812.723-1.812 1.846 0 .873.62 1.697 1.886 1.697 1.663-.025 3.201-.824 3.201-3.393z"/>
            <path d="M213.434 21.587h-3.92V6.99h3.796v1.822c.893-1.522 2.63-2.196 4.194-2.196 3.598 0 5.26 2.595 5.26 5.788v9.207h-3.92v-8.533c0-1.622-.794-2.92-2.68-2.92-1.713 0-2.705 1.348-2.705 3.02v8.408h-.025zM228.844 14.301c0 2.645 1.713 4.117 3.723 4.117s3.002-1.347 3.325-2.47l3.45 1.148c-.646 2.445-2.929 4.94-6.8 4.94-4.293 0-7.643-3.269-7.643-7.76 0-4.515 3.3-7.759 7.519-7.759 3.946 0 6.204 2.47 6.824 4.94l-3.524 1.198c-.347-1.223-1.265-2.47-3.226-2.47-1.96.025-3.648 1.472-3.648 4.116z"/>
            <path fill-rule="nonzero" d="M254.752 17.42c-.745 2.52-3.052 4.64-6.626 4.64-3.995 0-7.494-2.869-7.494-7.808 0-4.666 3.424-7.685 7.147-7.685 4.491 0 7.171 2.87 7.171 7.56 0 .574-.05 1.147-.05 1.222h-10.397c.1 1.921 1.712 3.319 3.673 3.319 1.836 0 2.829-.924 3.3-2.22l3.276.972zm-3.673-4.79c-.05-1.447-.992-2.87-3.25-2.87-2.036 0-3.152 1.548-3.252 2.87h6.502z"/>
        </g>
    </g>
</svg>
