<svg xmlns="http://www.w3.org/2000/svg" width="33" height="22" viewBox="0 0 33 22">
    <g fill="none" fill-rule="evenodd">
        <rect width="30" height="19" x="1.5" y="1.5" stroke="#979797" stroke-width="3" rx="2"/>
        <path fill="#979797" d="M11.567 9.185l-1.393.418c-.078-.429-.438-1.1-1.449-1.1-.753 0-1.247.473-1.247.99 0 .429.28.77.865.88l1.112.209c1.45.275 2.225 1.199 2.225 2.299 0 1.199-1.023 2.409-2.876 2.409-2.112 0-3.045-1.331-3.168-2.442l1.438-.374c.067.77.617 1.463 1.74 1.463.832 0 1.293-.407 1.293-.957 0-.451-.349-.803-.966-.924l-1.113-.22c-1.269-.253-2.09-1.056-2.09-2.233 0-1.386 1.27-2.442 2.776-2.442 1.932 0 2.673 1.144 2.853 2.024zm7.091 0l-1.393.418c-.078-.429-.438-1.1-1.449-1.1-.752 0-1.247.473-1.247.99 0 .429.281.77.865.88l1.112.209c1.45.275 2.225 1.199 2.225 2.299 0 1.199-1.023 2.409-2.876 2.409-2.112 0-3.045-1.331-3.168-2.442l1.438-.374c.067.77.618 1.463 1.741 1.463.831 0 1.292-.407 1.292-.957 0-.451-.348-.803-.966-.924l-1.112-.22c-1.27-.253-2.09-1.056-2.09-2.233 0-1.386 1.27-2.442 2.775-2.442 1.932 0 2.674 1.144 2.853 2.024zm8.53 5.94h-1.63l-3.617-5.533v5.533h-1.55V7.326h1.932l3.314 5.159V7.326h1.55v7.799z"/>
    </g>
</svg>
